<svg width="263" height="155" viewBox="0 0 263 155" fill="none" xmlns="http://www.w3.org/2000/svg">
<g id="Component 2">
<g id="Component 1">
<path id="Vector" d="M167.653 4.30188C173.648 4.30179 179.888 4.85317 186.185 5.90681C230.165 13.2664 259.531 38.5802 258.402 71.0673C255.894 93.6419 242.806 111.256 225.513 123.989C216.406 130.695 205.154 136.004 194.73 143.725C197.67 126.685 188.199 117.211 175.418 108.553C131.672 78.9227 112.449 47.9091 121.929 26.5247C128.806 11.0144 146.738 4.3024 167.656 4.30211L167.653 4.30188ZM167.657 0.00224208V4.30211L167.657 0.00224208H167.656C156.029 0.00241679 145.898 1.92765 137.544 5.72453C128.122 10.0075 121.451 16.4481 117.718 24.8676C112.433 36.7883 114.886 51.2451 124.811 66.6754C134.427 81.6252 151.006 97.3134 172.754 112.044C185.367 120.588 192.69 128.752 190.226 143.035L188.642 152.215C188.538 152.822 189.279 153.234 189.792 152.854L197.553 147.104C202.796 143.221 208.343 139.917 213.707 136.722C218.888 133.637 223.781 130.723 228.326 127.376C237.874 120.345 245.636 112.301 251.393 103.468C257.792 93.6504 261.678 82.8997 262.944 71.5133L262.961 71.3602L262.966 71.2064C263.266 62.5894 261.582 54.273 257.962 46.4886C254.463 38.9642 249.21 32.0501 242.347 25.9382C228.778 13.8528 209.634 5.46121 186.985 1.6712C180.359 0.5623 173.855 0 167.656 0L167.657 0.00224208Z" fill="#141313"/>
<path id="Vector_2" d="M192.969 58.0562C191.36 38.8994 203.913 29.9686 216.905 35.5089C231.7 41.8182 230.259 61.2819 218.719 77.57C214.272 83.8482 209.223 93.3357 204.908 104.472C201.622 95.7743 192.2 90.3458 179.392 86.7212C163.087 82.4281 156.158 74.1245 162.772 62.2446C169.188 50.7173 181.98 49.925 192.969 58.0548L192.969 58.0562Z" fill="#F78484"/>
</g>
<path id="MeetU" d="M40.2969 153.844L32.0703 123.258H31.5781L25.3203 153L20.1172 153.844L7.67188 125.508H7.32031L6.33594 153L0.640625 153.281L3.3125 115.523L17.2344 114.961L23.0703 142.453L29.8203 114.68L43.7422 115.523L45.5 153L40.2969 153.844ZM63.6406 121.922C72.9219 125.625 77.5625 130.266 77.5625 135.844C77.5625 138.75 76.7422 140.836 75.1016 142.102C73.4609 143.367 70.8359 144 67.2266 144C63.6641 144 60.9688 143.789 59.1406 143.367C58.4375 145.148 58.0625 147.023 58.0156 148.992C59.75 149.227 62.1641 149.344 65.2578 149.344C68.3516 149.344 71.6797 148.734 75.2422 147.516L76.9297 153.07C74.1172 153.961 70.9766 154.406 67.5078 154.406C61.2734 154.406 56.7031 153.258 53.7969 150.961C53.1875 148.242 52.8828 145.688 52.8828 143.297C52.8828 138.469 53.9375 134.109 56.0469 130.219C58.2031 126.281 60.7344 123.516 63.6406 121.922ZM60.2656 140.695C60.7344 140.742 61.9766 140.766 63.9922 140.766C66.0547 140.766 68.3984 140.484 71.0234 139.922C71.1172 139.219 71.1875 138.492 71.2344 137.742C71.2344 135.445 70.5781 133.242 69.2656 131.133C65.4219 133.664 62.4219 136.852 60.2656 140.695ZM94.2969 121.922C103.578 125.625 108.219 130.266 108.219 135.844C108.219 138.75 107.398 140.836 105.758 142.102C104.117 143.367 101.492 144 97.8828 144C94.3203 144 91.625 143.789 89.7969 143.367C89.0938 145.148 88.7188 147.023 88.6719 148.992C90.4062 149.227 92.8203 149.344 95.9141 149.344C99.0078 149.344 102.336 148.734 105.898 147.516L107.586 153.07C104.773 153.961 101.633 154.406 98.1641 154.406C91.9297 154.406 87.3594 153.258 84.4531 150.961C83.8438 148.242 83.5391 145.688 83.5391 143.297C83.5391 138.469 84.5938 134.109 86.7031 130.219C88.8594 126.281 91.3906 123.516 94.2969 121.922ZM90.9219 140.695C91.3906 140.742 92.6328 140.766 94.6484 140.766C96.7109 140.766 99.0547 140.484 101.68 139.922C101.773 139.219 101.844 138.492 101.891 137.742C101.891 135.445 101.234 133.242 99.9219 131.133C96.0781 133.664 93.0781 136.852 90.9219 140.695ZM120.031 153.844L117.57 130.641L112.227 131.344L111.875 125.438L116.938 125.156L116.094 117.141L130.438 115.172L129.242 124.523L135.008 124.242L134.797 128.109L128.68 128.953L125.727 153.352L120.031 153.844ZM155.75 154.406C152.328 154.406 149.492 153.352 147.242 151.242C144.992 149.133 143.633 145.734 143.164 141.047L140.422 115.523L154.133 114.68C152.539 133.195 151.742 142.734 151.742 143.297C151.742 147.703 153.828 149.906 158 149.906C159.922 149.906 161.539 149.32 162.852 148.148C164.211 146.977 164.914 144.914 164.961 141.961L165.453 115.242L171.289 114.961L169.531 142.031C169.016 150.281 164.422 154.406 155.75 154.406Z" fill="#F78484"/>
</g>
</svg>
