<svg width="702" height="465" viewBox="0 0 702 465" fill="none" xmlns="http://www.w3.org/2000/svg">
<path d="M530.004 0C530.305 0.0539909 530.608 0.128229 530.914 0.219339C530.461 2.10902 529.209 3.63427 528.96 5.60831C528.582 7.11668 528.123 8.60818 527.913 10.1604C527.709 11.959 526.863 13.545 526.572 15.3098C526.367 17.3277 526.064 19.3254 525.431 21.2319C524.942 21.9709 524.372 22.6391 523.76 23.2397C523.076 23.4861 522.325 23.5907 521.752 24.1002C521.347 24.5389 521.317 25.2205 521.137 25.784L521.407 25.7874C523.55 25.9899 525.704 25.7975 527.853 25.8819C528.972 25.9224 529.998 26.5872 531.13 26.5365C532.81 26.5129 534.497 26.4286 536.165 26.1654C538.695 26.3138 541.008 24.3567 543.541 25.1463C543.487 25.396 543.379 25.8954 543.325 26.1485C542.983 26.1519 542.647 26.1552 542.32 26.1586C541.939 26.108 541.573 26.054 541.206 26.0068C540.9 26.5163 540.6 27.0258 540.306 27.5354C539.385 27.4038 538.389 26.5973 537.5 27.1574C537.41 27.2587 537.233 27.4611 537.143 27.5657C536.54 27.2789 535.901 27.4949 535.337 27.7446C534.644 27.7311 533.96 27.7176 533.278 27.7412C531.856 27.7716 530.476 28.2406 529.056 28.2744C525.35 28.4127 521.629 27.8931 517.938 28.2744C515.454 29.1787 513.098 30.5521 510.913 32.1617C509.755 33.002 508.375 33.3057 507.174 34.0514C506.592 34.4125 505.98 34.7297 505.32 34.8511L505.083 34.9018C502.307 35.0131 499.606 36.0929 497.299 37.8038C496.434 38.4955 495.843 39.5315 494.952 40.1828C494.061 40.8509 492.972 41.2794 492.38 42.3458C491.552 43.4762 491.246 45.1499 489.968 45.7843C488.83 46.3917 488.365 47.7752 487.705 48.8854C487.009 50.2048 486.067 51.3251 485.194 52.4961C483.936 54.1529 483.249 56.2957 481.77 57.7433C479.054 60.3011 475.681 61.688 472.446 63.1728C470.751 64.2458 468.806 64.6001 467.051 65.4977C464.341 66.7632 461.424 67.627 459.051 69.6483C457.574 70.6404 456.437 72.0981 455.258 73.4783C452.35 76.5355 450.918 80.875 448.263 84.1719C447.239 85.3462 446.843 87.0199 445.802 88.1604C444.365 89.2031 442.297 88.7611 441.091 90.2964C439.545 92.1591 437.922 93.9307 436.328 95.736C434.549 97.9092 432.37 99.593 430.627 101.807C428.769 104.105 426.345 105.937 425.184 108.842C424.373 110.492 423.59 112.213 423.365 114.106C423.215 115.193 423.404 116.388 422.873 117.37C422.03 118.949 420.481 119.877 419.704 121.51C418.993 123.052 418.339 124.645 417.934 126.325C417.228 129.116 415.977 131.714 415.479 134.569C415.215 136.017 416.199 137.117 417.234 137.744C418.192 138.277 418.378 139.533 418.663 140.572C419.053 142.455 420.586 143.761 422.141 144.372C423.437 144.945 424.865 144.777 426.198 145.198C427.644 145.701 429.202 145.381 430.651 145.904C431.809 146.295 433.01 146.488 434.219 146.555C435.227 146.596 436.169 147.108 437.178 147.152C438.315 146.957 439.422 146.568 440.551 146.288C441.637 146.042 442.336 144.999 443.14 144.237C444.869 142.58 446.543 140.707 447.458 138.328C447.9 137.191 448.572 136.185 448.986 135.035C449.373 133.115 448.899 131.117 449.22 129.187C449.556 127.692 450.522 126.494 450.849 124.989C451.215 123.319 452.2 121.82 452.134 120.042C452.14 118.564 452.161 117.086 452.131 115.611C452.11 114.285 451.51 113.081 451.48 111.754C452.551 111.721 453.256 112.726 453.637 113.735C454.162 115.122 454.342 116.654 454.963 117.997C455.627 119.283 457.166 119.391 458.324 119.06C460.5 118.318 461.925 116.188 463.522 114.508C465.388 112.51 466.453 109.801 467.081 107.034C468.176 105.174 470.183 104.412 471.729 103.126C472.581 102.313 472.779 100.98 473.43 99.9946C474.319 99.2859 475.432 98.9654 476.227 98.0948C477.433 96.8395 478.421 95.2467 479.978 94.4976C481.292 93.8565 482.484 92.6181 484.008 92.78C485.323 92.8003 486.637 92.7632 487.954 92.7024C489.107 92.6113 490.115 93.3604 491.219 93.6068C493.365 94.1197 495.339 95.294 497.515 95.6854C499.099 96.0364 500.723 95.9655 502.334 95.9756C504.093 95.979 505.875 95.9655 507.594 95.4728C508.288 95.2636 508.747 94.5887 509.26 94.0657C510.205 92.969 511.315 92.0613 512.21 90.9005C512.693 90.4449 513.176 89.986 513.653 89.5136C514.229 89.7768 514.946 89.3685 514.937 88.6194L515.13 88.5384C515.88 88.2583 516.621 87.8129 517.443 87.8567C516.48 88.9163 515.238 89.5946 514.352 90.7486C513.866 91.1738 513.392 91.6192 512.921 92.0579C512.069 92.4325 511.261 92.9184 510.508 93.4887C510.55 93.9273 510.586 94.366 510.631 94.8047C511.88 94.9532 513.143 94.9802 514.391 94.7642L514.616 94.7541C515.103 94.7845 515.616 94.5212 515.835 94.0016C516.033 93.9813 516.432 93.9442 516.63 93.9273C518.79 93.546 521.17 93.1343 522.761 91.2683C523.88 90.6204 525.071 90.1142 526.325 89.905C526.343 90.0872 526.382 90.4449 526.4 90.6271C525.602 91.5551 524.483 91.9634 523.412 92.311C523.463 93.0804 523.658 93.8227 523.904 94.5449C522.935 94.8722 521.92 94.8351 520.924 94.7946C519.595 94.7068 518.358 95.3817 517.047 95.4492C516 95.51 514.961 95.6449 513.965 96.0026C512.483 96.5459 510.847 95.8946 509.41 96.6269C508.171 97.2039 507.666 98.7022 506.829 99.7651C505.251 102.08 502.415 102.758 501.08 105.35C499.135 104.192 497.377 102.363 495.057 102.269C494.949 102.913 494.829 103.558 494.7 104.199C493.665 103.281 492.915 102.019 491.846 101.155C490.352 100.588 488.473 101.597 487.186 100.292C486.148 98.9856 486.208 97.0284 485.257 95.6618C484.851 95.4897 484.431 95.6753 484.047 95.7867C482.616 96.2793 481.133 96.6201 479.804 97.4131C478.292 98.2163 477.055 99.4952 475.714 100.585C474.616 101.493 474.016 102.917 473.085 104.003C471.561 105.856 470.436 108.053 469.349 110.246C468.638 111.68 468.203 113.337 467.09 114.471C465.148 116.843 462.877 118.821 460.545 120.673C459.498 121.523 458.198 121.685 457.001 122.087C456.41 122.536 456.122 123.315 455.807 124C455.083 125.822 454.387 127.756 454.528 129.794C454.675 132.298 453.49 134.522 452.86 136.843C452.188 138.831 451.903 141.146 450.441 142.654C448.779 144.682 446.351 145.627 444.701 147.665C443.566 148.89 443.572 151.205 444.71 152.427C445.382 153.23 446.063 154.056 446.9 154.654C448.044 155.44 449.436 155.295 450.72 155.329C452.959 155.285 455.236 155.524 457.433 154.897C459.011 154.461 460.725 154.94 462.237 154.168C464.572 152.875 466.363 150.665 468.617 149.228C469.982 148.327 471.399 147.5 472.911 146.943C474.736 146.309 476.323 144.814 478.313 144.841C480.158 144.618 481.893 145.468 483.582 146.174C484.926 146.751 486.136 147.864 487.63 147.895C489.281 147.979 490.973 148.06 492.572 147.5C493.926 147.051 495.396 147.358 496.729 146.778C497.866 146.312 499.027 145.934 500.219 145.661L500.161 145.924C499.489 146.93 498.394 147.746 498.265 149.086C498.316 150.25 499.306 150.952 499.912 151.782C499.909 151.924 499.9 152.204 499.894 152.346C499.69 152.376 499.279 152.437 499.072 152.467C497.725 151.141 496.443 149.207 494.481 149.201C493.23 149.103 492.119 149.882 490.904 150.044C489.389 150.253 487.846 150.253 486.364 150.692C485.557 150.969 484.929 151.63 484.272 152.18C483.045 151.178 483.021 149.197 481.836 148.178C480.467 147.388 478.967 148.313 477.622 148.721C475.729 149.255 474.202 150.682 472.449 151.573C470.421 152.656 468.545 154.131 466.378 154.859C462.42 156.624 458.192 157.822 454.642 160.566C454.15 160.906 453.646 161.224 453.145 161.534C451.87 160.65 450.558 159.344 448.956 159.634C447.864 159.712 446.744 160.235 445.664 159.877C444.377 159.111 443.548 157.647 442.24 156.911C440.785 156.081 439.425 155.021 437.874 154.431C436.16 153.678 434.273 154.023 432.523 153.469C430.183 153.027 428.115 151.62 425.784 151.148C422.48 150.024 419.05 152.146 415.764 150.942C414.057 150.021 413 148.144 411.611 146.771C411.314 146.514 411.02 146.093 410.609 146.224C408.379 146.697 406.768 148.836 404.526 149.251C403.749 149.406 402.897 149.626 402.443 150.425C401.324 152.133 400.583 154.11 399.407 155.777C397.381 158.7 395.797 161.983 393.633 164.787C392.943 165.735 392.373 166.781 391.728 167.77C391.842 167.797 392.067 167.851 392.178 167.878C392.373 168.236 392.565 168.604 392.754 168.975C392.187 169.13 391.623 169.265 391.067 169.454C389.039 170.24 388.226 172.744 386.797 174.347C385.393 175.835 384.544 177.849 383.064 179.257C381.42 180.819 380.457 183.046 378.872 184.669C377.714 186.049 376.297 187.203 375.469 188.897C374.236 191.563 371.772 193.095 370.296 195.555C368.954 197.944 366.788 199.517 365.281 201.754C364.174 203.411 362.572 204.599 361.687 206.451C360.504 208.78 358.551 210.436 357.239 212.653C356.57 213.524 357.482 214.526 358.188 214.894C359.577 215.542 361.02 216.045 362.482 216.443C364.669 217.047 366.992 216.193 369.141 217.084C370.788 217.752 372.603 217.013 374.233 217.766C374.125 218.285 374.041 218.815 373.972 219.348C372.588 219.426 371.214 219.601 369.852 219.858C367.439 220.317 364.984 220 362.557 220.172C360.579 220.344 358.572 221.106 356.6 220.502C355.385 220.145 354.059 219.784 352.837 220.256C350.809 221.596 349.407 223.776 347.787 225.631C347.346 226.124 346.929 226.752 347.058 227.498C347.292 227.913 347.745 228.041 348.159 228.091C351.385 228.409 354.602 228.861 357.773 229.613C359.877 230.349 362.014 230.99 364.069 231.898C367.067 233.143 370.167 234.469 372.552 236.943C374.452 239.659 376.432 242.315 378.143 245.193C379.091 247.056 380.94 248.429 382.89 248.338C384.039 248.325 385.234 248.449 386.353 248.071C387.592 246.944 387.947 244.889 389.444 244.073C389.951 243.793 390.665 243.374 391.133 243.978C392.46 244.991 391.956 246.938 392.115 248.456C392.172 249.742 393.195 250.575 394.119 251.129C396.064 252.381 398.383 252.64 400.292 253.98C401.384 254.753 402.503 255.515 403.416 256.562C404.37 257.614 405.225 258.907 406.54 259.423C407.566 259.831 408.616 260.186 409.618 260.692C409.183 261.171 408.79 261.869 408.112 261.89C405.57 262.079 402.942 261.195 401.009 259.305C398.497 257.614 395.869 256.089 393.06 255.134C389.996 254.149 386.782 254.395 383.64 254.53C383.613 254.949 383.595 255.377 383.586 255.806C385.405 256.7 386.659 258.498 388.274 259.737C390.038 261.1 391.674 262.666 393.417 264.063C395.65 265.666 397.321 268.018 399.218 270.059C401.609 273.37 403.869 276.811 405.975 280.361C407.23 282.612 408.841 284.579 410.149 286.783C410.891 288.561 412.28 289.786 413.447 291.183C414.258 292.158 415.272 292.995 415.698 294.298C414.891 294.085 414.102 293.782 413.426 293.242C411.836 291.993 410.155 290.876 408.703 289.422C407.692 288.409 406.473 287.684 405.543 286.567C404.316 285.119 402.924 283.824 401.963 282.123C400.568 279.778 398.932 277.631 397.564 275.269C396.115 273.012 394.8 270.532 392.64 269.037C390.65 267.073 388.439 265.44 386.224 263.82C383.604 262.231 381.144 260.334 378.827 258.235C377.96 257.543 377.054 256.329 375.871 256.889C374.767 257.685 374.266 259.126 373.42 260.203C371.775 262.214 370.398 264.475 369.039 266.735C368.459 267.663 368.261 268.787 368.111 269.887C366.797 270.036 365.465 269.864 364.162 270.103C363.322 270.586 362.608 271.642 362.932 272.752C363.553 274.294 364.561 275.603 365.636 276.778C367.661 278.924 369.026 281.711 370.191 284.522C370.962 286.371 372.138 287.95 373.126 289.658C374.791 292.364 377.258 294.2 379.502 296.228C381.585 297.571 384.082 297.811 386.155 299.187C388.367 300.433 389.729 302.855 391.626 304.549C393.813 306.382 396.016 308.214 398.371 309.766C400.352 310.978 402.266 312.321 404.163 313.694C406.428 314.804 408.655 316.046 411.041 316.819C414.813 318.199 418.669 319.319 422.375 320.919C424.193 322.167 426.363 323.396 427.077 325.839C427.752 328.072 429.952 328.677 431.491 329.932C434.627 331.946 437.574 334.302 440.59 336.532C442.048 337.565 443.188 339.036 444.368 340.426C445.244 341.489 446.396 342.184 447.365 343.129C448.644 344.398 449.985 345.66 451.564 346.436C453.121 347.091 454.738 347.553 456.299 348.214C457.673 348.839 459.177 348.69 460.626 348.697C462.742 348.673 465.019 349.007 466.907 347.668V346.831L466.88 346.554C466.078 341.307 466.79 335.962 466.421 330.684C466.264 328.449 465.342 326.057 465.082 323.749C464.804 321.295 464.865 318.914 465.39 316.526C466.42 311.835 467.994 307.501 470.403 303.476C471.42 301.738 472.866 300.304 473.607 298.367C473.959 296.113 473.46 293.788 473.871 291.541C474.199 289.806 475.816 288.72 475.846 286.871C474.832 286.749 473.838 286.996 472.908 287.431C472.365 286.358 471.771 285.325 471.198 284.279C472.401 284.026 473.634 283.996 474.856 283.824C474.949 282.062 474.76 280.253 475.255 278.549C475.534 277.554 475.624 276.42 475.078 275.516C473.754 272.958 471.687 270.518 471.927 267.336C474.634 267.613 476.776 269.6 479.042 271.065C479.618 271.456 480.251 271.962 480.968 271.703C484.02 270.771 487.213 271.584 490.313 271.122C490.91 271.051 491.387 270.603 491.834 270.184C493.299 268.713 494.916 267.42 496.684 266.442C496.792 269.027 496.921 271.669 496.353 274.203C496.086 275.475 495.642 276.795 495.972 278.114C496.344 279.649 496.747 281.181 496.906 282.771C497.902 283.074 499.036 283.108 499.846 283.928C498.847 284.725 497.836 285.494 496.825 286.267C496.161 290.34 498.298 294.139 497.947 298.202C497.786 299.968 498.397 301.938 498.459 303.743C498.548 306.322 498.592 309.51 497.851 311.973C497.554 313.363 497.326 314.986 497.98 316.292C500.053 319.62 500.984 323.662 501.455 327.637C502.085 330.239 501.722 332.938 501.857 335.594C504.162 335.641 505.713 333.546 507.628 332.469C509.806 331.251 511.808 329.382 514.322 329.159C516.069 329.044 517.827 329.243 519.577 329.041C519.676 327.637 519.556 326.233 519.382 324.846C519.22 322.488 519.361 320.122 519.325 317.764C519.361 315.898 519.139 313.998 519.535 312.162C520.1 309.54 520.585 306.884 521.413 304.346C521.849 303.008 522.516 301.826 523.016 300.536C523.527 299.216 523.153 297.707 522.869 296.356C522.539 294.814 522.679 293.218 522.499 291.655C522.259 289.678 522.307 287.68 522.322 285.693C522.313 284.208 522.929 282.828 522.917 281.343C522.902 278.974 523.085 276.595 523.634 274.301C523.898 273.248 523.862 272.144 523.787 271.068C522.616 270.349 521.767 269.161 521.233 267.808C522.142 267.697 523.052 267.525 523.934 267.234C524.147 265.429 524.759 263.722 524.975 261.916C525.233 259.099 523.952 256.457 524.081 253.646C524.084 252.677 524.135 251.712 524.21 250.754C525.299 251.213 526.283 251.921 527.292 252.576C528.447 253.355 529.221 254.695 530.434 255.394C531.701 256.04 533.361 255.774 534.71 255.763L538.597 255.733C539.083 255.729 539.585 255.672 540.057 255.79C540.46 255.891 540.878 256.39 541.266 255.923C542.917 254.371 544.876 253.348 546.83 252.377C547.673 252.019 548.576 251.503 549.498 251.86C549.18 253.271 548.853 254.695 548.243 255.987C547.541 257.6 546.485 258.967 545.636 260.475C545.173 261.12 545.519 261.933 545.663 262.638C546.188 264.572 545.819 266.617 546.062 268.601C547.196 268.972 548.375 269.046 549.549 269.168C549.012 270.116 548.324 270.943 547.592 271.705C546.956 271.564 546.32 271.432 545.681 271.348C545.678 271.985 545.618 272.66 545.858 273.268C546.533 275.252 547.457 277.168 547.727 279.294C547.922 281.14 547.376 283.222 548.411 284.852C549.903 287.224 551.517 289.512 552.862 292.003C554.158 295.033 555.136 298.235 555.862 301.498C556.309 303.276 556.159 305.136 556.189 306.965C556.318 311.136 554.119 314.932 554.341 319.113C554.377 321.1 554.284 323.091 554.419 325.079C555.757 325.021 556.97 324.336 558.221 323.871C561.27 322.852 564.223 321.404 567.4 320.932C571.172 319.882 575.019 319.227 578.755 318.009C580.664 317.328 582.654 317.017 584.589 316.44C586.504 315.86 588.34 317.044 590.249 317.112C593.504 317.803 596.634 319.19 599.956 319.531C603.254 320.402 606.309 318.016 609.601 318.259C611.755 318.428 614.117 318.937 616.136 317.817C617.964 316.153 619.848 314.564 621.787 313.056C623.455 311.729 625.571 311.625 627.479 310.987C629.538 310.319 631.765 310.322 633.709 309.219C635.555 308.223 637.073 306.658 638.607 305.159C639.663 305.942 639.432 307.525 639.702 308.746C641.625 310.12 643.954 310.204 646.078 310.953C647.945 311.618 649.931 311.594 651.813 312.209C654.001 312.789 655.999 311.409 658.088 310.967C660.317 310.474 662.52 309.796 664.659 308.925C665.854 308.453 666.943 307.528 668.26 307.542C669.629 307.397 671.204 307.923 672.368 306.84C674.121 305.338 676.483 305.365 678.289 303.968C679.033 303.57 679.771 303.141 680.543 302.787C680.621 302.996 680.777 303.411 680.855 303.617C680.128 304.454 679.309 305.173 678.547 305.963C676.528 307.349 673.986 308.156 672.744 310.609C671.942 312.333 670.673 313.72 669.227 314.763C667.699 315.748 665.887 315.711 664.23 316.231C662.871 316.626 661.44 316.609 660.092 316.201C658.547 315.718 656.932 315.985 655.36 315.856C654.412 315.823 653.974 314.449 652.983 314.598C650.676 314.621 648.392 314.237 646.099 314.054C643.753 313.234 641.283 313.676 638.874 313.575C636.632 313.68 634.342 313.265 632.152 313.946C630.537 314.399 628.779 314.054 627.26 314.915C626.273 315.509 625.274 316.072 624.248 316.565C622.837 317.226 621.745 318.458 620.5 319.413C619.32 320.314 618.501 321.708 617.247 322.487C615.287 323.597 613.235 324.88 610.963 324.657C607.557 324.596 604.145 324.836 600.745 324.616C599.218 324.35 597.598 324.141 596.295 323.135C595.497 322.497 594.465 322.744 593.561 322.592C592.04 322.349 590.486 322.399 589 321.94C586.636 321.158 584.136 322.113 582.08 323.442C580.826 324.313 579.512 325.106 578.071 325.497C578.074 325.642 578.086 325.939 578.089 326.088C578.873 326.898 579.896 327.178 580.946 327.097C583.476 326.958 585.621 328.966 588.142 328.824C590.651 328.801 593.183 328.706 595.671 329.169C597.655 329.638 599.581 330.589 601.652 330.461C603.788 330.366 605.988 330.731 608.07 329.999C609.604 329.492 611.242 330.042 612.779 329.516C614.714 328.804 616.776 329.162 618.777 329.118C620.908 329.324 622.978 330.029 625.082 330.464C626.396 330.761 627.57 329.894 628.695 329.27C630.063 330.95 631.269 332.833 632.938 334.176C635.126 336.008 637.565 337.459 640.116 338.543C642.258 339.204 644.41 340.119 646.673 339.96C648.419 339.859 650.196 340.139 651.927 339.774C653.19 339.218 654.28 338.266 655.519 337.635C655.636 338.455 655.741 339.292 655.981 340.088C656.152 340.442 656.455 340.739 656.848 340.746C657.89 340.308 658.655 339.339 659.618 338.742C659.879 338.755 660.149 338.789 660.425 338.843L660.356 339.184C660.02 340.119 659.477 340.969 658.742 341.553C657.244 342.18 655.897 343.196 654.61 344.242C653.274 345.572 651.69 347.458 652.272 349.645C653.205 352.283 654.631 354.652 655.801 357.156C656.605 358.789 656.278 360.716 656.41 362.501C658.538 363.834 660.707 365.201 663.132 365.693C664.89 366.294 666.763 366.075 668.527 366.662C670.199 367.165 671.945 366.672 673.635 367.006C674.475 367.175 675.141 367.816 675.762 368.444C674.544 369.091 673.176 368.886 671.879 368.899C668.596 368.855 665.317 368.818 662.04 368.896C662.022 371.032 663.369 372.736 664.674 374.119C666.034 375.51 667.153 377.278 668.872 378.162C670.664 379.36 672.843 379.147 674.838 378.975C677.314 378.347 679.603 376.988 682.085 376.363C684.717 375.999 686.799 378.398 689.356 378.682C688.858 379.346 688.612 380.47 687.844 380.764C685.461 380.23 682.847 380.284 680.699 381.692C679.435 382.562 678.211 383.635 677.479 385.11C677.182 385.751 677.755 386.281 678.232 386.517C679.459 387.155 680.822 387.401 682.163 387.583C682.145 387.816 682.112 388.285 682.094 388.518C681.224 388.569 680.372 388.717 679.522 388.896C680.165 390.222 680.582 391.946 682.07 392.351C682.445 392.584 682.823 392.831 683.207 393.084C683.213 393.283 683.222 393.681 683.225 393.88C682.751 393.931 682.283 393.988 681.824 394.055C682.283 395.614 682.757 397.231 682.52 398.901C682.184 398.952 681.857 399.006 681.539 399.063C681.038 397.42 680.909 395.655 680.291 394.062C679.867 392.814 678.91 391.984 678.079 391.099C676.573 389.54 675.315 387.62 673.473 386.524C672.441 385.906 671.102 385.515 670.04 386.237C669.482 386.547 669.668 387.357 669.587 387.928C669.557 390.637 669.617 393.35 669.566 396.06C669.509 397.332 669.83 398.56 670.046 399.802C670.349 402.313 670.55 405.039 671.936 407.148C672.639 408.252 672.996 409.561 673.443 410.81C674.232 413.148 675.495 415.227 676.621 417.373C677.656 419.215 678.721 421.048 679.922 422.765C681.131 424.564 682.835 425.924 683.727 427.996C683.336 428.114 682.952 428.235 682.577 428.357C681.668 426.679 680.279 425.441 679.207 423.916C677.44 421.456 675.954 418.756 674.523 416.043C673.527 414.012 671.993 412.304 671.528 409.979C670.553 406.524 669.371 403.136 668.653 399.596C667.993 397.116 667.594 394.558 666.928 392.081C665.521 388.11 664.401 383.892 661.956 380.524C660.908 379.012 659.51 377.868 658.469 376.36C657.391 374.818 657.331 372.756 656.557 371.052C655.945 369.911 654.754 369.48 653.799 368.818C651.708 367.549 650.685 364.749 648.392 363.824C644.908 362.113 641.037 361.634 637.658 359.626C636.797 359.022 635.966 358.351 635.02 357.932C632.629 356.994 630.753 355.003 628.509 353.741C626.318 352.56 624.497 350.664 622.219 349.688C620.097 348.75 618.162 347.353 615.995 346.54C614.036 345.737 611.92 345.065 610.405 343.358C609.151 342.096 608.184 340.395 606.603 339.602C604.61 338.62 602.66 337.412 600.472 337.105C597.339 336.096 594.063 336.555 590.858 336.491C588.871 336.626 586.771 336.147 584.895 337.078C584.436 337.27 584.46 337.918 584.412 338.371C584.307 340.608 584.409 342.852 584.379 345.096C584.394 347.087 584.217 349.118 584.673 351.072C585.246 354.419 585.915 357.925 587.77 360.709C588.448 361.853 588.982 363.125 589.834 364.141C590.492 364.975 591.323 365.636 591.893 366.561C592.349 367.846 592.163 369.358 592.853 370.566C594.021 372.678 595.827 374.224 597.619 375.631C598.765 376.492 598.627 378.405 599.794 379.235C601.706 380.71 604.115 380.764 606.297 381.368C607.11 381.611 607.464 382.525 607.755 383.332C606.762 383.136 605.79 382.697 604.775 382.771C603.881 382.903 603.248 384.04 603.767 384.958C604.796 387.249 606.123 389.412 607.827 391.143C608.968 392.314 609.946 393.684 611.167 394.761C612.689 395.901 614.318 396.9 616.085 397.477C615.296 398.489 614.576 399.765 615.116 401.152C615.485 402.795 616.088 404.374 616.941 405.782C617.412 407.719 617.691 409.73 618.426 411.579C618.756 413.023 618.987 414.498 619.269 415.962C619.746 418.534 619.269 421.152 619.239 423.744C619.233 425.225 618.591 426.703 619.083 428.168C619.791 430.661 619.392 433.31 619.671 435.875C619.629 436.327 619.914 437.177 619.323 437.306C618.873 437.562 618.27 436.948 618.279 436.425C618.234 434.441 618.444 432.45 618.249 430.472C618.099 429.112 617.553 427.807 617.673 426.42C617.751 425.293 617.982 424.193 618.03 423.065C618.099 420.663 618.603 418.216 617.952 415.858C617.589 414.633 617.814 412.986 616.692 412.24C615.767 410.371 615.77 408.144 615.128 406.153C614.753 404.833 614.186 403.571 613.412 402.498C612.785 401.496 612.145 400.501 611.392 399.62C610.351 398.402 609.679 396.85 608.562 395.716C607.242 394.15 605.409 393.111 604.505 391.14C603.827 389.851 603.08 388.181 601.598 388.022C601.529 388.245 601.39 388.687 601.321 388.909C601.258 389.092 601.132 389.456 601.069 389.638C600.982 389.814 600.805 390.165 600.718 390.34C599.89 392.743 599.53 395.392 598.168 397.528C597.805 398.085 597.111 398.034 596.592 398.26C596.457 397.862 596.331 397.467 596.211 397.079C596.514 396.485 596.817 395.895 597.129 395.307C598.324 393.84 598.849 391.886 599.278 390.003C599.548 388.451 599.512 386.851 599.377 385.289C599.356 384.715 598.945 384.327 598.654 383.919C597.63 382.687 596.922 381.165 595.785 380.055C594.288 378.56 593.441 376.421 591.86 375.024C591.263 374.383 590.327 374.416 589.618 374.754C589.216 375.496 589.168 376.387 589.021 377.227C588.244 377.342 587.446 377.477 586.681 377.251C586.179 376.434 586.197 375.378 585.966 374.45C585.579 372.054 584.58 369.871 584.019 367.532C583.074 363.686 581.864 359.93 580.646 356.188C579.722 352.182 578.521 348.221 578.122 344.09C578.077 342.963 577.432 342.072 576.922 341.168C576.211 339.95 575.71 338.57 574.794 337.524C573.192 335.647 571.19 334.159 568.973 333.393C567.821 333.12 566.659 332.911 565.525 332.57C564.337 332.185 563.169 332.759 562.023 333.022C559.028 333.272 556.27 334.75 553.351 335.425C551.814 335.884 550.206 335.742 548.669 336.15C546.494 336.764 544.243 336.356 542.038 336.518C542.146 337.777 542.359 339.022 542.704 340.23C545.912 351.462 544.512 364.786 539.402 375.041C539.055 375.738 538.695 376.428 538.323 377.109C537.152 378.945 536.252 381.023 534.749 382.559C533.506 383.861 532.408 385.336 531.106 386.564C529.64 387.947 527.599 389.174 525.719 389.599C523.961 389.997 522.213 389.067 520.442 389.408C518.594 389.763 517.12 391.143 515.382 391.849C513.965 392.297 512.471 392.159 511.021 392.105C509.767 391.967 508.48 391.967 507.282 391.508C497.796 387.872 490.835 377.074 487.408 366.895C486.476 364.127 485.921 361.23 484.981 358.469C484.837 357.858 484.201 357.777 483.768 357.564C482.511 357.031 481.158 356.896 479.825 356.95C478.349 357.011 476.852 356.805 475.393 357.109C473.17 357.77 470.862 357.976 468.641 358.644C466.673 359.184 464.752 360.031 462.715 360.156C461.397 360.234 460.182 360.858 458.907 361.155C458.622 362.93 459.036 364.755 458.679 366.513C458.343 367.316 457.652 368.346 456.767 368.143C454.46 366.51 453.025 363.807 451.684 361.222C450.601 359.026 448.827 357.399 446.937 356.137C445.031 354.909 443.27 353.4 441.241 352.425C439.044 351.332 437.172 349.641 435.35 347.924C433.796 346.881 432.716 345.2 431.2 344.114C429.589 342.916 428.419 341.158 427.017 339.697C425.97 338.482 424.608 337.699 423.563 336.488C422.873 335.698 422.183 334.898 421.364 334.281C419.863 333.177 418.738 331.534 417.13 330.603C415.032 329.297 413.331 327.265 411.071 326.287C408.793 325.3 406.897 323.305 404.414 322.896C402.891 322.645 401.166 322.895 399.625 322.897C398.176 322.899 396.355 322.941 395.032 322.218C393.627 321.451 392.606 319.761 391.478 318.584C390.288 317.343 389.14 316.026 388.01 314.716C387.284 313.825 386.377 313.174 385.522 312.468C381.522 308.358 377 304.957 372.85 301.059C371.809 299.838 370.428 299.082 369.387 297.871C367.202 295.374 364.991 292.91 362.788 290.437C361.822 289.364 361.162 288.011 360.249 286.89C358.863 285.146 358.005 282.949 356.51 281.306C355.904 280.664 355.367 279.838 354.56 279.534C353.408 279.311 352.234 279.352 351.076 279.409C349.041 279.49 347.271 280.762 345.326 281.265C343.217 281.7 340.984 281.478 339.049 280.405C336.927 279.436 334.446 277.85 332.201 279.311C329.791 280.472 328.891 283.455 327.103 285.389C324.417 288.517 320.744 290.133 317.677 292.691C315.895 294.142 313.794 295.195 312.432 297.209C311.105 299.143 309.737 301.356 309.845 303.918C309.758 305.807 310.334 307.613 310.637 309.448C311.045 311.669 312.066 313.768 311.937 316.089C311.979 318.225 310.664 320.02 310.64 322.143C310.592 323.03 310.793 323.901 310.985 324.758C311.309 326.182 311.318 327.667 311.648 329.091C312 330.981 312.753 332.739 313.071 334.642C313.413 336.798 314.208 338.819 314.658 340.945C314.925 342.234 315.282 343.503 315.781 344.704C316.567 346.533 316.969 348.565 318.037 350.235C319.069 352.374 320.42 354.271 321.719 356.204C323.021 358.02 324.843 359.198 326.442 360.638C327.604 361.668 328.948 362.373 330.283 363.068C331.97 363.976 333.515 365.795 333.476 368.022C333.488 370.269 333.653 372.537 334.133 374.72C334.833 376.33 335.394 378.347 336.999 379.093C338.788 379.96 340.801 380.814 342.764 380.197C343.97 379.586 344.471 378.101 345.281 377.028C346.53 375.719 348.156 374.551 349.945 375.054C350.212 376.886 350.23 378.877 351.148 380.49C351.922 381.611 352.861 382.69 354.086 383.166C356.078 384 358.164 384.509 360.243 384.999C361.3 385.228 362.332 385.717 363.103 386.588C364.223 387.819 365.423 388.99 366.293 390.475C367.367 392.358 368.97 393.735 370.314 395.358C372.529 397.815 374.698 400.329 376.922 402.775C383.821 408.964 390.837 415.102 398.615 419.863C399.593 420.444 400.739 420.278 401.808 420.228C403.248 420.099 404.7 420.093 406.147 420.19C406.201 421.149 406.195 422.114 406.105 423.076C404.079 423.879 401.625 424.304 400.298 426.403C399.773 427.132 400.589 427.834 400.982 428.36C401.549 429.018 402.219 429.689 402.06 430.715C401.622 430.837 401.192 430.965 400.76 431.07C398.777 428.657 396.835 426.129 394.384 424.297C392.172 422.04 389.618 420.261 387.38 418.044C385.321 416.56 383.404 414.862 381.486 413.165C379.407 411.09 376.943 409.541 374.965 407.334C374.206 406.473 373.27 405.863 372.442 405.107C370.713 403.467 369.366 401.344 367.466 399.93C366.149 398.965 365.183 397.528 363.895 396.522C361.333 394.423 358.77 392.284 355.937 390.661C354.209 389.611 352.27 389.159 350.47 388.316C349.303 387.705 347.979 387.887 346.767 387.479C344.771 386.838 342.47 386.763 340.687 388.116C340.717 390.016 341.605 391.7 342.518 393.236C343.655 395.142 344.414 397.288 345.191 399.404C345.753 400.939 346.878 402.357 346.704 404.121C346.362 405.144 345.513 405.768 344.774 406.406C342.305 402.829 340.723 398.557 338.191 395.027C337.107 393.806 336.465 392.227 335.586 390.836C333.635 388.1 331.823 385.194 330.539 381.982C328.963 379.026 328.261 375.648 327.373 372.385C327.004 371.076 326.83 369.635 326.049 368.531C324.6 366.527 322.649 365.113 320.735 363.733C318.325 362.143 316.462 359.748 314.556 357.497C312.348 354.814 311.21 351.355 309.968 348.048C308.399 343.952 307.609 339.565 306.631 335.269C305.749 332.826 304.726 330.447 303.828 328.011C303.234 326.243 301.791 325.156 300.699 323.817C300.089 323.182 299.558 322.349 298.739 322.062C295.351 321.451 291.786 322.082 288.803 324.012C287.066 325.436 285.079 326.486 282.979 327.009C281.28 327.157 279.501 327.296 277.88 326.594C276.65 326.105 275.33 326.162 274.057 325.953C272.326 325.706 270.607 325.288 268.857 325.288C267.504 325.335 266.321 324.404 264.974 324.414C263.558 324.404 262.186 323.908 260.773 323.901C259.459 323.884 258.141 323.968 256.83 323.877C256.038 323.587 255.233 323.24 254.387 323.307C251.419 323.415 248.44 323.162 245.478 323.462C242.39 324.184 239.254 324.63 236.202 325.548C232.868 326.56 229.475 327.269 226.096 328.045C223.074 328.649 220.232 327.026 217.249 326.84C215.725 326.796 214.297 326.024 212.763 326.108C209.789 325.929 206.954 327.167 204.28 328.477C202.104 329.658 200.103 331.186 197.996 332.513C193.986 335.426 189.201 336.858 184.55 338.042C181.395 338.845 178.193 339.418 174.972 339.754C173.302 339.929 171.593 339.874 169.933 340.097C168.602 340.276 167.134 340.153 165.827 340.567C163.721 341.34 161.503 340.581 159.346 340.668C159.697 342.595 161.029 343.928 162.262 345.193C162.829 345.818 163.712 345.754 164.345 346.246C165.194 347.532 165.257 349.209 165.758 350.673C166.484 352.934 166.917 355.293 167.397 357.632C167.766 359.862 168.534 361.991 168.696 364.269C168.636 365.008 169.341 365.268 169.875 365.325C172.081 365.612 174.127 366.712 176.354 366.881C182.206 368.662 188.201 369.854 193.984 371.919C194.959 372.145 195.94 372.361 196.889 372.725C200.072 373.873 203.409 374.284 206.629 375.28C210.635 376.046 214.557 377.396 218.617 377.719C221.387 378.789 224.349 377.753 227.152 378.536C228.127 378.796 229.129 378.823 230.122 378.961C230.891 379.086 231.452 379.893 232.256 379.899C233.213 379.967 234.177 379.957 235.14 380.011C235.119 380.578 235.113 381.148 235.125 381.722C233.885 382.228 232.544 382.147 231.275 382.498C228.922 383.537 226.41 384.33 223.86 384.198C221.657 384.171 219.458 384.202 217.258 384.175C216.217 384.185 215.115 384.023 214.158 384.6C214.389 386.955 215.458 389.054 216.085 391.288C216.712 393.502 217.849 395.51 219.311 397.143C219.788 397.74 220.46 397.079 220.997 396.923C223.545 395.55 226.17 394.234 228.994 393.785C230.38 393.667 231.779 393.708 233.171 393.728C234.342 393.724 235.407 394.318 236.511 394.673C238.909 395.52 241.447 394.808 243.899 395.162C245.907 395.564 247.884 397.234 248.187 399.613C244.457 400.254 240.7 399.41 236.967 399.903C233.801 400.615 230.534 400.288 227.368 401.006C225.855 401.435 224.367 401.948 222.915 402.586C223.089 403.497 223.323 404.421 223.818 405.191C224.826 406.645 225.738 408.187 226.876 409.53C229.684 413.789 232.931 417.673 235.428 422.191C235.68 422.802 236.172 423.538 235.791 424.216C235.233 424.644 234.525 424.779 233.867 424.648C231.776 422.964 230.344 420.484 228.664 418.327C227.23 416.144 225.441 414.308 223.812 412.321C222.533 409.692 220.424 407.803 218.566 405.724C218.065 405.039 217.219 404.914 216.541 405.316C213.921 406.807 211.439 408.612 209.15 410.684C209.294 411.768 209.444 412.861 209.792 413.897C210.032 414.717 210.398 415.567 210.23 416.458C209.75 417.163 208.697 417.545 208.082 416.846C206.956 415.716 206.29 414.15 205.369 412.827C204.481 411.491 203.667 409.753 202.083 409.389C200.213 408.936 198.365 408.369 196.633 407.442C194.455 406.794 192.672 405.123 190.485 404.499C188.351 403.244 185.993 402.646 183.775 401.621C181.221 400.426 178.491 399.859 175.817 399.134C174.365 398.958 172.873 398.881 171.433 399.147C170.373 399.957 168.975 400.507 167.778 399.701C166.854 399.242 166.794 398.023 166.562 397.072C166.388 396.137 165.977 395.229 166.133 394.254C166.385 391.892 166.274 389.483 165.746 387.178C165.452 385.967 165.749 384.688 165.446 383.483C165.128 382.211 165.104 380.891 164.927 379.602C164.375 377.409 164.492 375.074 163.664 372.962C162.913 372.651 162.172 372.29 161.383 372.131C160.018 371.899 158.595 372.216 157.269 371.693C154.85 370.822 152.234 371.915 149.833 370.967C148.771 370.542 147.633 370.65 146.535 370.758C145.92 371.784 145.149 372.698 144.681 373.832C144.05 375.162 143.648 376.643 142.829 377.848C142.277 378.212 141.542 377.885 140.927 377.922C140.906 377.733 140.87 377.352 140.852 377.163C141.344 374.902 142.43 372.86 142.766 370.542C141.386 370.458 140.002 370.539 138.622 370.478C137.812 370.485 137.155 369.914 136.56 369.371C134.823 367.697 132.92 366.263 131.114 364.691C129.617 363.351 127.816 362.562 126.127 361.596C124.389 360.625 122.394 359.97 120.455 360.466C119.264 361.229 118.529 362.73 117.181 363.23C116.266 363.699 114.94 363.574 114.469 362.447C113.892 360.689 113.883 358.755 113.301 357.001C113.016 356.142 110.756 354.551 109.944 354.17C108.111 353.309 105.831 353.047 103.888 352.61C99.7727 351.685 95.6145 351.001 91.4356 350.562C87.7236 350.172 83.9894 349.974 80.3116 349.287C75.8726 348.458 72.2008 346.585 68.2772 344.225C65.4625 341.923 62.1106 340.604 58.7407 339.777C56.142 339.126 53.5883 338.279 50.9896 337.641C48.1214 337.343 45.1612 336.479 42.2834 335.979C39.0086 335.41 35.7341 334.842 32.4594 334.273C25.6803 333.104 18.827 331.475 12.0002 330.845C7.91311 330.362 4.01507 328.81 0 327.916V284.794C1.03228 284.926 2.07655 285.145 3.0008 285.708C5.17038 287.011 7.46299 288.037 9.62057 289.366C11.262 290.078 12.8584 290.895 14.4429 291.755C16.3244 292.629 18.0108 293.986 19.9673 294.671C23.213 295.807 26.2468 298.103 29.3145 299.705C32.6154 301.43 36.1819 302.429 39.7636 303.08C44.5292 303.945 49.3641 304.213 54.1513 304.909C62.0052 306.052 69.6921 308.312 77.5458 309.458C81.4504 310.028 85.401 310.32 89.335 310.02C93.0689 309.735 96.7011 309.902 100.467 309.956C102.124 309.98 103.781 309.998 105.438 309.998C113.598 309.997 121.745 309.971 129.896 309.885C146.073 309.716 162.77 309.473 178.704 306.332C179.843 306.108 180.979 305.867 182.112 305.608C186.024 304.716 189.686 303.488 193.314 301.605C196.06 300.617 198.895 299.672 201.251 297.728C202.46 296.719 203.868 296.014 204.909 294.769C205.899 293.605 207.202 292.862 208.204 291.712C209.17 290.635 209.707 289.174 210.707 288.125C211.673 287.085 212.762 286.161 213.476 284.865C214.26 283.414 215.34 282.216 216.471 281.106C217.674 279.952 218.341 278.281 219.481 277.063C220.342 276.128 221.215 275.184 221.855 274.033C222.653 272.599 223.766 271.438 224.633 270.061C225.423 268.823 226.47 267.844 227.319 266.663C229.15 263.815 231.334 261.193 233.942 259.226C234.818 258.517 235.385 257.468 235.997 256.493C236.898 255.055 238.197 254.026 239.181 252.669C240.814 250.301 242.224 247.746 243.682 245.239C244.772 243.866 245.834 242.472 246.788 240.974C248.739 238.709 249.567 235.625 251.106 233.047C252.124 231.073 253.555 229.436 254.629 227.506C255.29 226.359 256.205 225.455 257.102 224.55C258.314 223.396 258.884 221.648 260.055 220.45C262.098 218.348 263.683 215.706 266.02 213.965C266.392 213.506 267.242 213.273 267.179 212.541C266.729 211.225 265.861 210.135 265.498 208.771C264.88 206.673 264.7 204.219 265.684 202.222C266.714 199.964 267.944 197.805 269.453 195.915C270.399 194.822 270.522 193.236 270.927 191.855C271.452 189.996 271.764 188.076 272.208 186.193C272.463 185.019 273.162 183.936 272.991 182.677C272.799 180.355 272.91 178.024 272.877 175.699C272.877 174.295 272.775 172.854 273.162 171.497C273.588 169.918 273.801 168.153 274.858 166.915C275.818 165.744 276.952 164.688 277.516 163.186C278.036 161.836 278.828 160.466 278.609 158.928C278.405 157.311 277.886 155.732 278.021 154.082C278.015 152.783 278.888 151.814 279.233 150.64C279.629 147.208 278.744 143.591 279.935 140.291C280.178 139.181 281.327 138.9 281.844 138.01C282.06 137.507 282.162 136.957 282.288 136.424C282.468 135.627 282.657 134.838 282.843 134.045C283.005 134.102 283.332 134.22 283.494 134.277C283.614 134.892 283.713 135.516 283.779 136.144C283.869 137.817 282.606 138.853 281.826 140.075C281.616 140.26 281.409 140.446 281.204 140.635C281.078 140.753 280.826 140.982 280.7 141.097C280.742 143.976 280.391 146.834 280.484 149.712C280.601 152.472 279.464 155.054 279.452 157.801C279.446 159.144 279.404 160.49 279.485 161.83C279.503 163.146 280.658 163.915 281.619 164.354C283.227 164.941 284.688 163.601 286.273 163.503C289.118 162.933 291.911 163.962 294.558 165.029C295.689 165.599 296.608 166.645 297.832 167.016C299.086 167.398 300.428 167.698 301.727 167.411C302.345 167.215 302.444 166.311 302.297 165.71C301.583 163.095 299.86 161.097 298.561 158.857C299.131 158.074 299.848 157.237 299.737 156.134C299.785 155.142 299.278 154.305 298.744 153.576C297.307 151.652 296.617 149.203 296.043 146.817C295.863 146.051 295.563 145.339 295.209 144.664C295.095 144.357 294.987 144.053 294.888 143.749C294.69 142.359 294.474 140.976 294.324 139.579L294.606 139.609C295.32 140.47 295.911 141.475 296.238 142.602C296.83 144.708 297.634 146.726 298.213 148.835C298.825 150.755 299.413 152.719 300.41 154.44C300.623 154.855 300.848 155.27 301.034 155.712C301.577 158.276 302.306 160.942 303.975 162.889C305.1 164.188 305.847 165.92 307.197 166.952C309.244 167.576 311.606 167.155 313.151 165.427C315.014 163.794 315.57 161.118 316.524 158.826C317.271 157.028 317.664 155.064 318.564 153.346C319.372 151.804 319.936 150.127 320.521 148.47C321.16 146.604 322.597 145.221 323.081 143.274C324.293 139.349 323.456 135.108 322.417 131.261C320.89 126.881 320.128 122.231 319.351 117.625C319.114 116.133 319.318 114.547 318.747 113.137C318.363 112.107 317.874 111.088 317.88 109.941C318.276 109.631 318.732 109.381 319.057 108.962C319.279 106.918 318.949 104.846 319.159 102.801C319.267 101.981 319.51 101.191 319.618 100.371C319.876 96.386 321.037 92.5729 321.946 88.7327C322.21 86.3268 322.838 83.9782 322.757 81.5317C323.165 77.6882 323.843 73.757 325.595 70.3758C325.754 70.2476 326.069 69.9911 326.228 69.8629C326.201 70.9022 326.246 71.9416 326.306 72.9775C326.931 73.2272 327.555 73.4769 328.179 73.7469C326.424 74.7592 325.082 76.5173 324.548 78.6601C323.75 80.9918 324.101 83.5395 323.537 85.9252C323.156 87.6293 323.135 89.4043 322.724 91.1016C322.315 92.8563 322.261 94.6954 321.757 96.4265C321.325 97.8471 321.559 99.3892 321.166 100.827C320.74 102.457 320.896 104.171 320.896 105.848C320.902 108.885 320.917 111.925 320.878 114.966C320.887 115.688 320.857 116.433 321.04 117.139C321.967 119.862 323.216 122.693 325.595 124.144C326.315 125.011 327.318 125.818 327.36 127.124C327.465 129.047 327.498 130.977 327.426 132.907C327.513 133.215 327.609 133.522 327.714 133.832C329.475 133.555 330.307 131.622 331.387 130.282C332.32 128.831 333.836 128.082 334.814 126.682C335.438 125.814 336.185 125.042 337.145 124.681C336.191 127.394 334.265 129.452 332.437 131.44C330.436 133.819 327.897 135.86 326.991 139.127C326.529 140.223 327.618 141.35 328.578 141.178C330.202 140.969 331.729 140.156 333.379 140.115C334.277 140.098 335.444 139.882 335.921 140.986C334.769 141.107 333.613 141.05 332.461 141.08C331.429 141.053 330.592 141.823 329.652 142.17C328.494 142.69 327.114 142.636 326.126 143.581C325.175 144.529 324.854 145.973 324.203 147.158C323.294 148.869 322.628 150.724 321.757 152.459C321.073 154.001 320.281 155.766 320.806 157.521C320.989 158.442 321.55 159.468 321.001 160.369C319.786 162.859 318 164.897 316.464 167.128C314.741 168.946 313.457 171.184 312.089 173.33C311.408 174.44 310.612 175.611 310.648 177.035C310.423 179.626 311.251 182.549 309.781 184.83C310.21 185.322 310.654 186.193 311.387 185.913C312.665 185.474 313.967 185.11 315.216 184.56C317.949 183.078 320.962 181.651 324.056 182.032C324.053 182.505 324.053 182.977 324.056 183.456C322.069 184.428 319.867 184.617 317.892 185.623C316.758 186.173 315.591 186.628 314.465 187.205C313.433 187.688 313.148 189.055 312.329 189.814C310.723 191.201 308.974 192.362 307.314 193.661C305.412 195.189 304.674 197.825 303.098 199.681C301.91 201.068 300.716 202.478 299.269 203.531C297.166 205.441 295.149 207.55 292.737 208.974C290.51 209.983 288.232 210.884 285.883 211.457C283.932 211.964 282.717 213.894 281.348 215.368C279.785 216.998 278.609 219.08 276.796 220.403C276.148 220.987 275.056 221.672 275.41 222.796C275.872 224.324 276.085 225.937 275.863 227.547C275.404 227.385 275.032 227.044 274.921 226.511C274.504 225.31 274.24 224.054 273.991 222.806C272.802 222.799 271.443 223.19 270.867 224.476C268.79 227.469 267.116 230.79 264.928 233.685C263.983 235.062 263.389 236.681 262.639 238.19C262.128 239.168 261.834 240.407 262.266 241.49C262.588 241.979 263.206 242.037 263.677 242.283C265.549 242.921 267.113 244.338 268.991 244.966C270.056 245.31 271.104 245.772 272.205 245.981C273.027 245.846 273.747 245.269 274.579 245.131C276.169 244.81 277.769 244.429 279.242 243.653C279.179 242.607 278.999 241.574 278.978 240.528C279.158 239.408 280.514 238.78 281.204 239.749C282.603 240.926 280.856 242.749 281.427 244.237C282.576 245.202 283.812 246.487 285.355 246.356C286.51 246.349 287.68 246.302 288.82 246.585C290.549 247.004 292.325 246.825 294.078 246.852C296.827 246.889 299.623 246.582 302.225 245.533C303.611 244.989 305.055 244.611 306.36 243.825C307.978 242.853 309.727 242.107 311.143 240.761C312.038 239.978 312.74 238.973 313.514 238.051C314.345 237.053 315.528 236.536 316.347 235.517C317.256 234.394 318.192 233.304 319.18 232.268C320.761 230.638 321.55 228.114 323.537 226.977C324.827 226.734 326.156 226.936 327.456 226.71C328.209 226.673 328.965 226.666 329.718 226.602C331.306 226.572 332.719 225.691 334.199 225.161C335.915 224.544 337.346 223.285 338.928 222.36C340.536 221.388 341.794 219.759 343.555 219.097C344.449 218.767 345.305 218.277 345.983 217.525C347.444 215.956 349.248 214.886 350.841 213.509C351.426 213.037 351.72 212.277 352.008 211.565C353.083 208.599 355.336 206.48 356.783 203.774C357.239 202.201 357.356 200.352 356.537 198.901C356.074 197.896 355.225 197.086 355.051 195.945C355.075 194.663 356.516 194.639 357.254 194.042C359.033 192.621 359.531 190.067 360.543 188.029C362.727 184.435 366.484 182.569 368.666 178.968C369.446 177.615 370.586 176.616 371.466 175.361C372.912 173.137 374.376 170.924 375.658 168.575C376.189 167.573 376.804 166.628 377.494 165.754C377.896 166.841 378.313 167.927 378.815 168.97C377.806 170.654 376.741 172.317 375.415 173.708C374.742 174.413 374.151 175.209 373.644 176.07C372.777 177.541 371.532 178.661 370.664 180.129C369.257 182.454 367.381 184.337 365.554 186.227C364.426 187.357 363.711 188.872 362.85 190.246C361.812 191.923 361.074 193.826 360.645 195.807C360.411 196.779 360.876 197.703 361.143 198.601C362.439 197.977 363.3 196.667 364.291 195.598C365.398 194.275 366.682 193.124 367.613 191.623C368.63 189.952 370.073 188.677 370.979 186.912C372.144 185.407 373.257 183.855 374.355 182.289C378.857 177.453 383.079 172.301 387.61 167.495C389.071 166.065 389.956 164.087 391.337 162.575C393.122 160.48 393.852 157.612 395.352 155.297C396.114 153.988 396.69 152.553 397.479 151.261C398.182 150.053 399.157 149.101 400.045 148.076C402.329 145.254 405.702 143.959 408.024 141.182C408.823 140.206 409.807 139.369 410.374 138.185C411.415 135.006 411.94 131.662 412.625 128.379C412.802 124.529 413.879 120.719 415.703 117.456C416.859 114.176 418.656 111.22 420.715 108.574C421.087 108.024 421.363 107.403 421.6 106.766C421.957 105.689 421.018 104.66 420.925 103.58C421.312 103.55 421.705 103.526 422.101 103.503C422.257 104.144 422.503 104.751 422.785 105.342C424.079 104.954 424.247 103.287 425.081 102.325C426.812 100.209 428.817 98.4039 430.833 96.6458C433.96 94.0306 434.989 89.438 435.392 85.2942C435.476 83.472 437.222 82.3821 437.141 80.5194C437.294 78.2045 436.148 76.1799 435.542 74.0607C435.362 73.288 436.106 72.9033 436.568 72.549C437.348 73.4837 437.972 74.7862 439.164 75.1034C440.085 73.4331 440.727 71.5974 441.429 69.8022C441.99 68.2736 442.14 66.6066 442.63 65.051C443.278 63.2052 443.002 61.1872 443.089 59.2537C443.191 57.8364 442.356 56.679 441.954 55.4068C443.254 55.5148 444.631 56.0379 445.906 55.5216C446.978 54.6611 447.2 52.9064 448.412 52.1944C448.988 51.8097 449.615 52.3361 450.195 52.4778C449.528 53.8512 448.601 55.0323 447.893 56.3719C447.338 57.7116 447.038 59.166 446.399 60.4651C445.603 62.1186 445.375 63.9981 444.856 65.7663C444.499 66.9643 444.703 68.2972 444.202 69.4512C443.563 71.017 443.017 72.6333 442.678 74.3172C443.947 74.5298 445.228 74.5804 446.51 74.6749C446.107 75.7479 445.033 76.0651 444.223 76.6253C442.867 77.4318 441.192 78.3024 440.922 80.2123C440.664 82.2572 439.218 83.9478 439.503 86.0872C440.322 86.212 441.066 85.8544 441.507 85.0512C442.912 83.1346 443.983 80.8872 445.705 79.2877C446.732 78.3057 447.692 77.236 448.583 76.0955C447.965 75.4813 447.284 74.9549 446.6 74.4454C447.983 73.7098 449.819 74.4083 450.918 73.0011C453.177 70.4771 455.38 67.8889 457.679 65.4087C458.681 64.2816 460.103 63.7586 461.511 63.8598C464.109 64.0521 466.696 63.384 469.112 62.3514C471.056 61.2109 473.121 60.2795 474.858 58.7374C477.1 56.9118 478.957 54.5869 480.926 52.4171C483.314 49.704 485.751 47.0416 488.116 44.3016C489.451 42.5469 490.795 40.8023 492.308 39.2332C493.724 37.7855 494.907 36.0207 496.557 34.8802C497.295 34.3673 498.03 33.8408 498.811 33.392C499.78 32.815 500.899 32.7475 501.958 32.4843C503.813 32.0929 505.607 31.4112 507.438 30.8815C509.376 30.3854 510.817 28.624 512.755 28.1111C514.814 27.5813 516.767 26.6634 518.676 25.6545C519.921 25.0099 520.728 23.7142 521.761 22.7525C522.832 21.7131 524.149 20.9505 524.981 19.6277C525.383 18.2273 525.209 16.7156 525.281 15.2646C525.794 13.2264 526.628 11.2929 526.703 9.13999C527.285 8.28626 527.531 7.25706 527.432 6.18736C527.975 3.99196 528.756 1.82219 530.004 0ZM488.08 95.5808C488.083 96.1545 487.915 96.8428 488.341 97.2916C488.98 98.1521 489.793 98.9721 490.819 99.151C494.135 99.5154 497.082 101.645 500.407 101.942C501.835 101.54 503.243 100.808 504.323 99.6605C504.845 99.1273 504.542 98.2567 504.557 97.5717C502.727 97.781 500.884 98.1791 499.045 97.8619C497.037 97.1533 494.918 97.0082 492.899 96.3434C491.24 96.3839 489.736 95.1151 488.08 95.5808ZM323.489 124.152C323.438 125.205 323.549 126.261 323.984 127.213C324.713 128.829 324.62 130.675 324.53 132.433C324.449 133.732 325.076 134.886 325.613 135.983C325.922 135.689 326.27 135.392 326.177 134.876C326.261 132.527 326.268 130.175 326.144 127.83C325.97 126.119 324.527 125.198 323.489 124.152ZM287.005 164.797C284.712 165.03 282.939 166.839 280.775 167.524C279.755 167.888 278.612 168.323 278.099 169.484C277.507 170.844 277.153 172.329 276.889 173.814C276.616 177.249 276.922 180.708 276.763 184.15C276.019 187.602 275.089 191.006 274.114 194.388C273.456 196.287 272.412 198.005 271.929 199.989C271.479 201.767 270.738 203.438 270.309 205.226C269.963 206.731 270.627 208.364 271.719 209.252C272.655 209.562 273.51 208.965 274.21 208.327C275.494 207.123 277.138 206.549 278.387 205.287C280.022 203.782 282.105 203.121 284.166 202.851C285.418 202.743 286.729 203.009 287.926 202.463C289.265 201.835 290.363 200.742 291.563 199.854C293.139 198.751 294.333 197.107 295.467 195.484C296.833 193.807 296.626 191.216 297.967 189.512C298.924 188.182 300.512 187.71 301.46 186.373C302.249 185.26 302.591 183.856 303.182 182.618C303.833 181.048 304.86 179.729 305.538 178.18C306.387 176.324 305.721 174.178 305.058 172.39C304.488 170.979 303.23 170.217 301.919 169.997C299.692 168.998 297.373 168.249 295.236 167.011C294.144 166.437 293.103 165.739 291.962 165.297C290.363 164.747 288.664 164.534 287.005 164.797ZM333.331 234.749C331.159 235.387 329.43 237.078 327.525 238.316C326.43 239.095 325.13 239.554 324.242 240.658C322.967 242.156 321.493 243.475 320.584 245.315C319.285 246.961 318.438 248.952 317.346 250.761C316.866 251.537 316.611 252.462 316.749 253.41C319.084 254.689 321.292 256.359 323.009 258.573C324.278 260.233 326.072 261.164 327.513 262.608C328.272 263.449 329.4 263.121 330.349 263.368C333.604 264.4 336.38 266.638 339.381 268.308C340.926 267.292 342.652 266.708 344.386 266.246C347.027 265.284 349.821 265.004 352.578 265.305C354.418 265.868 356.248 266.516 357.977 267.434C359.045 268.075 360.261 267.323 361.14 266.617C363.093 264.549 364.945 262.355 366.865 260.246C368.948 257.172 370.901 253.983 372.783 250.744C373.173 248.52 371.436 246.779 370.1 245.436C369.158 244.093 367.715 243.418 366.697 242.176C365.722 240.941 364.303 240.388 363.12 239.467C362.028 238.795 361.08 237.779 359.843 237.452C358.583 237.044 357.293 236.622 356.237 235.721C354.373 234.267 352.095 233.845 349.902 233.48C347.192 232.431 344.293 233.011 341.494 232.849C338.664 232.61 335.996 233.882 333.331 234.749ZM263.479 256.835C261.525 256.869 259.527 257.159 257.612 256.612C257.051 256.487 256.31 256.302 255.956 256.966C255.767 257.881 255.728 258.836 255.434 259.727C253.75 264.532 250.992 268.79 247.683 272.344C245.507 274.659 243.814 277.446 242.047 280.145C241.246 281.796 240.015 283.169 239.475 284.974C238.854 287.066 237.546 288.872 237.288 291.102C237.351 292.152 237.951 293.066 238.782 293.532C240.006 294.433 241.537 294.477 242.941 294.264C245.807 293.353 248.244 291.352 250.704 289.547C251.833 288.588 252.664 287.265 253.789 286.297C255.089 285.167 255.998 283.591 257.291 282.454C259.347 280.27 261.516 278.168 263.116 275.516C265.486 272.404 267.485 268.973 269.582 265.635C270.684 262.831 273.246 260.763 273.294 257.483C272.112 256.443 270.579 256.16 269.138 255.903C267.245 256.15 265.351 256.433 263.479 256.835ZM276.421 257.213C274.223 260.114 272.91 263.919 271.179 267.202C269.329 270.71 267.345 274.129 265.234 277.445C261.011 284.078 256.282 290.302 251.109 296.021C250.799 296.364 250.487 296.705 250.173 297.045C249.598 297.668 248.97 298.417 249.039 299.312C249.091 299.982 249.528 300.525 249.963 300.986C254.003 305.262 259.783 306.996 265.328 306.824C270.873 306.653 276.257 304.754 281.451 302.564C289.323 299.244 297.07 295.135 303.407 288.923C309.098 283.345 313.9 275.928 321.122 273.456C321.849 273.207 322.703 272.899 322.934 272.086C323.464 270.226 320.699 268.915 319.698 268.038C318.235 266.757 316.639 265.692 314.952 264.827C311.54 263.076 307.835 262.127 304.129 261.588C300.746 261.096 297.336 260.92 293.934 260.676C292.153 260.548 290.372 260.405 288.597 260.187C287.126 260.007 285.155 260.133 283.786 259.497C282.687 259.038 281.484 259.098 280.386 258.65C279.074 258.134 277.733 257.722 276.421 257.213ZM660.344 312.138C660.734 312.631 661.331 312.877 661.919 312.641C663.993 311.808 666.249 311.47 668.176 310.198C668.311 309.898 668.443 309.594 668.569 309.287C665.76 309.982 663.197 311.693 660.344 312.138ZM621.279 335.382C620.226 335.614 619.167 336.097 618.521 337.102C618.071 338.668 619.215 339.896 620.046 340.966C621.795 342.933 623.557 344.891 625.288 346.882C626.348 348.056 627.311 349.436 628.721 350.114C630.372 350.911 632.082 351.592 633.597 352.713C635.884 354.083 638.159 355.621 640.751 356.121C643.194 356.499 645.409 357.913 647.863 358.206C648.884 358.051 650.06 358.017 650.852 357.163C650.948 356.239 651.077 355.102 650.366 354.444C649.067 352.979 647.737 351.552 646.462 350.067C645.658 349.055 644.415 348.802 643.44 348.076C640.028 345.751 636.295 344.088 632.946 341.644C630.882 340.092 628.412 339.242 626.612 337.261C625.183 335.861 623.194 334.771 621.279 335.382ZM125.007 335.962C122.849 336.839 120.35 336.026 118.345 337.423C118.543 338.844 119.179 340.112 119.863 341.307C121.532 343.924 122.962 346.658 125.387 348.493C128.065 350.519 130.395 353.385 132.786 355.856C133.665 356.764 134.557 357.682 135.609 358.317C136.717 358.985 137.959 359.31 139.183 359.629C141.67 360.276 144.157 360.924 146.644 361.571C147.224 361.722 149.778 362.814 150.234 362.451C150.936 361.892 150.215 359.753 150.148 359.009C149.923 357.282 149.1 355.773 148.506 354.191C147.747 352.237 147.024 350.202 145.71 348.623C144.911 347.583 143.813 346.814 143.303 345.525C142.835 344.391 141.815 343.767 141.187 342.772C141.671 341.945 142.367 341.246 142.685 340.322C142.472 338.958 142.418 336.89 140.914 336.559C138.583 336.087 136.224 335.577 133.844 335.763C130.9 335.884 127.93 335.56 125.007 335.962ZM525.494 337.16C524.101 337.379 522.916 338.311 521.578 338.729C519.291 339.36 517.073 340.254 514.814 340.99C512.716 342.08 510.391 342.363 508.26 343.349C505.58 344.256 503.081 345.697 500.701 347.33C500.111 347.735 499.862 348.455 499.42 349.027C498.907 349.691 498.312 350.282 497.678 350.796C495.161 352.833 491.502 352.662 489.634 355.719C488.493 357.587 490.83 361.86 491.464 363.545C492.498 366.292 493.616 369.003 494.937 371.592C497.648 376.901 501.194 381.128 505.731 384.476C508.116 386.15 510.955 386.71 513.728 386.798C514.282 386.874 515.086 386.167 514.775 385.486C514.665 385.245 514.462 385.078 514.266 384.921C512.139 383.212 509.455 381.611 507.66 379.495C506.085 377.64 504.086 376.114 502.682 374.08C500.911 371.515 499.71 368.452 499.944 365.161C500.246 360.916 502.608 355.969 506.376 354.505C508.563 353.656 511.427 353.516 513.532 354.731C514.576 355.136 515.387 356.536 516.611 356.07C517.799 354.788 518.982 353.422 520.536 352.696C524.724 350.747 529.399 351.348 532.47 355.408C537.752 362.394 532.892 372.481 528.42 378.273C527.925 378.914 527.401 379.544 527.065 380.304C526.85 380.789 526.491 381.954 526.838 382.463C527.162 382.936 527.986 382.852 528.341 382.415C529.739 380.954 530.981 379.314 532.188 377.65C533.832 375.239 535.154 372.373 536.324 369.656C537.475 366.984 538.331 364.153 538.887 361.251C540.001 355.447 539.919 349.348 538.604 343.595C538.141 341.57 537.606 339.372 536.674 337.548C536.38 337.005 536.005 336.323 535.351 336.452C533.148 336.462 530.946 336.367 528.743 336.414C527.618 336.411 526.598 337.025 525.494 337.16ZM146.072 338.25C145.649 339.728 145.925 341.371 146.423 342.795C146.862 344.071 147.057 345.434 147.471 346.723C147.813 347.793 148.485 348.667 149.076 349.578C149.913 350.85 150.595 352.25 151.162 353.698C152.092 356.138 153.703 358.267 153.997 360.98C154.106 362.38 155.015 363.784 156.326 363.926C158.13 364.199 160.035 364.945 161.803 364.068C162.238 362.981 162.271 361.776 161.926 360.653C161.022 357.278 159.777 354.029 158.379 350.88C156.848 347.887 154.688 345.377 152.329 343.2C150.817 341.864 149.961 339.741 148.215 338.729C147.582 338.344 146.775 337.811 146.072 338.25ZM523.183 357.474C521.923 358.007 520.866 359.121 520.233 360.447C519.678 361.489 519.912 362.755 519.648 363.889C518.958 365.826 516.434 366.281 515.198 364.729C514.586 363.602 514.238 362.293 513.427 361.311C511.709 359.228 508.826 358.944 506.728 360.535C504.907 361.915 503.976 364.486 504.595 366.86C505.253 369.383 507.253 371.145 508.924 372.825C511.782 375.699 514.765 378.415 517.859 380.961C518.345 381.361 518.861 381.769 519.458 381.853C520.742 382.033 521.502 380.084 522.162 379.141C523.107 377.792 524.013 376.408 524.876 374.991C527.432 370.8 533.24 362.623 527.864 358.257C526.589 356.964 524.737 357.315 523.183 357.474ZM170.919 374.289C170.784 375.142 171.276 375.888 171.495 376.674C172.008 378.166 171.54 379.86 172.191 381.318C172.858 382.975 173.269 384.729 173.587 386.511C174.127 388.434 173.794 390.861 175.264 392.325C177.329 393.989 179.951 394.178 182.355 394.768C184.765 395.78 187.399 396.199 189.59 397.802C192.108 399.256 194.598 400.775 197.218 401.989C198.977 402.735 200.621 404.044 202.565 404.058C204.27 404.119 205.974 403.997 207.682 404.014C209.8 404.088 211.721 402.921 213.596 401.973C214.875 401.456 215.145 399.408 214.323 398.321C213.191 396.735 212.033 395.133 211.331 393.243C210.539 391.239 210.356 388.846 208.891 387.253C206.989 384.662 203.877 384.071 201.293 382.718C199.313 381.625 197.095 381.308 195.114 380.238C193.032 379.29 190.793 378.922 188.618 378.358C187.135 377.967 185.77 377.073 184.234 376.965C183.255 376.894 182.295 376.698 181.341 376.472L181.293 376.718L180.633 376.516C180.357 376.249 180.074 375.983 179.714 375.898C177.137 375.082 174.595 374.063 171.936 373.607C171.474 373.428 171.102 373.853 170.919 374.289Z" fill="#F2AF7E"/>
<path d="M527.904 10.1604C528.114 8.60815 528.573 7.11665 528.951 5.60828Z" fill="#8BC43F"/>
<path d="M529.284 47.2589C529.167 47.0665 529.053 46.8745 528.943 46.6829C527.565 44.2621 526.149 41.794 524.145 40.0086C522.518 38.5593 520.568 37.6242 518.565 37.0128C515.706 36.1398 513.073 36.2738 510.179 36.3166C509.039 35.8509 508.003 35.1254 507.016 34.3561C507.048 34.3405 507.081 34.3274 507.113 34.3122C507.057 34.2727 507.004 34.2289 506.954 34.1806C506.427 34.4914 505.896 34.709 505.317 34.8521C505.328 35.2074 505.339 35.5631 505.35 35.9184C506.713 36.5616 508.608 37.333 509.563 38.6551C509.872 39.0826 509.905 40.2448 510.025 40.785C510.196 41.5483 510.379 42.3143 510.661 43.0365C511.187 44.3825 512.103 45.6331 513.042 46.6481C515.053 48.8226 517.735 50.113 520.448 50.7045C522.449 51.1408 524.494 51.2313 526.526 51.179C527.548 51.1527 528.569 51.0872 529.588 51.0136C530.375 50.9569 531.293 51.0912 530.793 49.9311C530.396 49.0068 529.813 48.1275 529.284 47.2589V47.2589Z" fill="#8BC43F"/>
<path d="M314.517 43.1084C316.458 42.6042 317.013 44.8141 318.073 45.9935C319.439 47.5147 320.897 48.7001 322.049 50.4876C324.464 54.2332 325.86 58.924 325.357 63.5345C325.049 66.3578 322.94 68.5266 322.91 71.4296C322.412 71.4262 321.923 71.4262 321.434 71.4296C321.181 70.8323 321.175 69.9854 320.581 69.6715C319.631 69.1698 318.95 68.9457 318.164 68.1098C317.341 67.2355 316.617 66.2465 315.997 65.1822C314.749 63.0401 313.921 60.5936 313.529 58.0739C313.117 55.4284 313.167 52.7113 313.553 50.0661C313.743 48.7666 314.027 47.4961 314.351 46.2317C314.422 45.954 314.595 43.0881 314.517 43.1084Z" fill="#8BC43F"/>
<path d="M631.762 63.5912C632.57 61.7265 634.087 59.7234 636.046 59.468C636.045 59.5823 636.043 59.6994 636.041 59.8152C636.119 60.6588 635.669 61.8263 636.371 62.4169C637.379 62.6598 638.429 62.6261 639.459 62.5249C640.338 62.4337 641.19 61.85 642.09 62.184C641.571 63.1795 641.079 64.2019 640.434 65.1029C639.75 66.0174 638.588 66.1321 637.796 66.8779C637.349 67.4043 637.337 68.3761 637.841 68.8688C639.202 70.1986 640.389 71.5464 642.124 72.2665C642.624 72.474 643.153 72.639 643.571 73.0102C644.133 73.5086 644.195 74.2136 644.045 74.9485C642.552 74.8287 641.2 73.9716 639.821 73.3176C638.886 72.8742 637.868 72.5145 636.842 72.554C635.815 72.5938 634.884 73.1685 633.842 73.1776C632.596 73.1884 631.348 72.8476 630.25 72.1845C629.09 71.4843 628.037 70.4413 627.415 69.1229C627.088 68.4291 626.947 67.7265 626.872 66.9538C626.833 66.5593 626.711 66.2053 626.531 65.8669C626.37 65.5639 625.937 65.194 625.904 64.8512C625.798 63.7137 627.204 62.5711 628.085 62.5195C628.489 62.4958 631.711 63.7086 631.762 63.5912V63.5912Z" fill="#0F080A"/>
<path d="M541.018 72.1251C542.485 71.7958 543.991 71.6726 545.486 71.7148C546.709 71.7492 548.029 71.433 547.525 73.1823C547.237 74.1822 546.835 74.9478 546.619 75.9844C546.39 77.0764 546.057 78.14 545.63 79.1534C544.775 81.1797 543.542 83.0073 542.018 84.4563C539.354 86.9905 536.252 87.911 532.863 88.2029C533.69 88.4692 534.559 88.2093 535.4 88.3241C536.039 88.4111 536.606 88.6878 537.189 89.0152C538.447 89.7224 539.589 90.6848 540.562 91.8254C541.617 93.0618 542.523 94.5077 543.168 96.062C543.495 96.8509 543.766 97.6837 543.893 98.5452C544.055 99.6348 544.16 100.08 543.133 100.202C540.968 100.46 538.759 100.138 536.698 99.3639C534.791 98.6471 532.429 97.4452 530.821 96.0745C529.804 95.2072 528.963 94.1105 528.057 93.1083C527.322 92.3562 527.359 91.191 526.43 90.5752C526.067 89.7369 526.446 88.7128 527.009 88.0285C527.571 87.3441 528.304 86.8582 528.859 86.1658C529.948 84.8059 530.198 82.874 530.762 81.1571C531.934 77.5876 534.614 74.7862 537.718 73.2724C538.78 72.7551 539.887 72.3789 541.018 72.1251V72.1251Z" fill="#8BC43F"/>
<path d="M603.044 75.0271C604.001 74.2544 605.088 73.6942 606.216 73.3028C606.273 73.4344 606.393 73.6909 606.45 73.8191C606.618 74.1977 606.106 75.6656 606.053 76.1225C606.018 76.4306 605.864 77.1419 605.995 77.426C606.172 77.809 606.462 77.6545 606.877 77.6214C608.261 77.5114 609.645 77.3909 611.03 77.2961C611.645 77.2539 612.177 77.2084 612.785 77.0555C612.907 77.0248 614.567 76.8915 614.483 77.0484C613.46 78.9719 612.431 81.0944 610.6 82.1742C609.727 82.812 608.437 83.1393 608.115 84.3912C607.842 85.3597 608.71 85.9502 609.259 86.5002C610.447 87.4923 611.359 88.9197 612.746 89.6081C614.021 90.2661 615.257 91.0149 616.493 91.7674C616.603 91.8342 616.667 93.5386 616.704 93.7731C616.805 94.4126 616.686 94.8378 616.046 94.5871C615.543 94.3903 615.009 93.7583 614.555 93.4293C614.017 93.0389 613.463 92.6738 612.884 92.364C609.629 90.6234 605.808 91.8781 602.324 91.4802C600.383 91.2589 598.44 90.6322 596.859 89.3489C595.912 88.5809 595.111 87.5652 594.585 86.3906C594.327 85.8132 594.121 85.1862 594.027 84.5468C593.924 83.851 594.045 83.1632 593.907 82.457C593.619 81.5627 592.647 81.4514 591.978 81.1173L592.104 80.9182C592.965 79.6427 593.796 78.2018 595.111 77.4662C597.013 76.8757 598.493 78.9746 600.332 79.0454C601.469 77.9157 601.796 76.0496 603.044 75.0271V75.0271Z" fill="#0F080A"/>
<path d="M420.235 73.7921C420.751 73.7786 421.27 73.7685 421.793 73.7685C422.253 74.962 422.568 76.2679 423.208 77.3389C423.881 78.4657 424.595 79.502 425.141 80.7252C426.212 83.1275 426.837 85.7838 426.936 88.4702C427.04 91.3074 426.557 94.1652 425.561 96.773C425.086 98.0165 424.51 99.3899 423.684 100.383C422.907 101.317 422.126 102.098 422.096 103.504C421.7 103.527 421.306 103.551 420.919 103.581C420.688 102.832 420.595 102.012 420.211 101.341C419.587 100.48 418.687 99.8761 418.237 98.8672C416.518 95.0159 415.714 90.6211 416.158 86.3257C416.382 84.1668 416.921 82.052 417.769 80.0982C418.713 77.9248 419.88 76.2588 420.235 73.7921V73.7921Z" fill="#8BC43F"/>
<path d="M371.682 80.1866C372.868 80.7501 374.149 81.2192 375.124 82.2079C375.774 83.0087 376.175 83.9953 376.616 84.9466C377.157 86.1158 377.822 86.0672 378.852 85.394C379.376 85.0522 379.851 84.6149 380.405 84.3402C383.18 82.9638 384.59 86.1432 386.449 87.7214C385.801 88.3457 384.778 88.0015 384.186 88.7303C383.446 89.6431 383.709 91.1798 383.285 92.317C382.763 93.7134 381.936 94.967 380.89 95.9216C379.352 97.3247 377.428 97.8889 375.479 97.9857C373.733 98.0725 372.029 97.5889 370.306 97.3584C368.539 97.1219 366.89 97.7006 365.17 98.1214C364.015 98.2496 363.748 99.7816 362.776 100.23C361.89 100.504 361.371 99.2485 361.425 98.4318C362.028 97.1664 363.487 97.1934 364.501 96.5759C365.917 95.6446 366.854 94.0417 368.222 93.0294C368.783 92.5671 369.461 92.2094 369.851 91.5311C369.869 91.079 369.956 90.4716 369.5 90.2556C368.144 89.3276 366.557 88.646 365.596 87.1511C364.819 86.0072 363.79 84.9679 363.562 83.4831C364.867 83.1423 366.016 84.1107 367.301 84.1074C368.37 84.1047 369.595 84.3594 370.641 84.1688C372.806 83.7746 371.466 81.7669 371.682 80.1866V80.1866Z" fill="#0F080A"/>
<path d="M290.367 103.696C290.571 103.53 292.219 102.595 292.379 103.186C293.16 106.077 293.946 108.995 294.169 112.006C294.299 113.749 294.23 115.525 293.871 117.231C293.497 119.007 292.653 120.473 292.037 122.129C291.707 123.015 290.862 123.847 290.431 124.727C293.608 123.103 297.499 123.391 300.459 125.469C301.725 126.358 303.098 127.28 304.588 127.188C304.517 127.192 304.659 128.796 304.568 128.931C304.384 129.205 303.695 129.199 303.394 129.286C302.411 129.571 301.483 130.046 300.572 130.54C298.79 131.504 297.02 132.635 295.014 132.847C293.159 133.349 291.2 133.761 289.321 133.133C287.845 132.57 286.281 132.405 284.811 131.814C284.511 132.506 284.391 133.262 284.316 134.021C284.112 134.085 283.701 134.217 283.497 134.281C283.334 134.223 283.007 134.105 282.845 134.048C282.962 132.83 283.56 131.763 283.662 130.545C283.839 128.427 284.05 126.448 283.747 124.323C283.422 122.045 282.795 119.812 282.761 117.489C282.721 114.686 283.571 111.914 284.956 109.582C285.924 107.953 287.146 106.529 288.505 105.307C289.11 104.762 289.758 104.213 290.367 103.696V103.696Z" fill="#8BC43F"/>
<path d="M532.495 136.779C533.905 136.506 535.376 136.891 536.381 138.085C537.07 138.904 537.585 140.691 538.635 141.03C539.707 141.376 540.414 139.9 541.128 139.303C542.163 138.436 543.74 138.435 544.929 138.944C545.709 139.277 546.45 139.875 546.943 140.639C547.337 141.251 547.324 141.183 546.977 141.714C546.859 141.894 545.643 142.659 545.668 142.789C546.198 145.469 545.111 148.287 543.483 150.236C541.776 152.28 539.323 153.517 536.819 153.273C535.392 153.096 533.613 153.825 532.202 154.108C530.644 154.42 529.241 155.371 527.952 156.432C527.315 156.956 526.669 157.713 525.959 158.101C525.341 158.438 525.46 158.468 525.056 157.773C524.756 157.258 524.516 156.682 524.261 156.139C525.605 154.931 527.297 154.252 528.465 152.785C529.502 151.533 530.916 150.424 531.767 149.006C532.125 148.412 532.33 147.664 532.174 146.968C532.162 146.915 530.771 146.514 530.621 146.443C529.907 146.108 529.238 145.655 528.582 145.199C527.664 144.554 526.622 144.062 525.911 143.113C525.382 142.408 525.112 141.592 524.804 140.75C526.778 140.573 528.757 140.476 530.738 140.459C531.649 140.451 532.637 140.877 532.796 139.797C532.838 139.521 532.307 136.816 532.495 136.779V136.779Z" fill="#0F080A"/>
<path d="M499.936 152.423C500.381 152.423 500.834 152.433 501.29 152.453C501.536 153.861 502.685 154.802 503.892 155.045C507.086 155.667 509.575 158.562 511.298 161.467C512.463 163.432 513.206 165.694 513.624 168.001C514.021 170.195 514.141 172.437 514.154 174.672C514.159 175.581 514.82 179.234 513.302 178.963C513.081 178.924 512.884 178.789 512.693 178.656C511.691 177.96 510.689 177.264 509.688 176.568C507.382 174.966 505.046 173.338 503.189 171.117C501.534 169.138 500.374 166.716 500.093 164C499.963 162.737 499.502 161.71 499.699 160.393C499.915 158.96 500.537 157.629 500.587 156.159C500.345 154.913 499.783 153.729 499.936 152.423V152.423Z" fill="#8BC43F"/>
<path d="M400.01 163.879C400.349 163.709 400.711 163.565 401.102 163.452C403.32 162.813 405.638 162.614 407.918 162.814C410.653 163.054 413.349 163.872 415.816 165.223C417.099 165.927 418.302 166.781 419.438 167.752C420.201 168.403 420.731 168.79 419.928 169.543C419.066 170.351 417.851 170.938 416.867 171.542C414.735 172.852 412.503 173.996 410.136 174.646C405.09 176.031 399.696 174.724 396.484 169.888C395.62 168.562 394.024 169.415 392.82 169.206C392.778 168.686 392.763 168.167 392.778 167.654C393.823 167.266 394.921 167.296 396.004 167.185C397.385 165.943 398.471 164.649 400.01 163.879V163.879Z" fill="#8BC43F"/>
<path d="M646.376 192.565C647.735 191.85 649.184 191.344 650.634 190.895C650.205 192.741 649.439 194.502 649.442 196.463C651.813 196.453 654.208 196.635 656.563 196.213C657.611 196.058 658.676 196.135 659.735 196.223C659.552 197.097 658.886 197.671 658.493 198.417C657.953 199.361 657.38 200.323 656.521 200.937C654.952 202.071 653.461 203.438 651.636 204.008C651.081 204.099 650.979 204.703 650.949 205.226C650.94 205.371 653.121 207.333 653.406 207.671C654.288 208.716 655.252 209.683 656.252 210.582C658.213 212.348 660.369 213.84 662.656 215.008C662.177 215.159 661.697 215.31 661.218 215.461C661.094 215.5 661.444 218.036 661.464 218.219C661.396 217.59 659.107 216.316 658.629 216.003C657.542 215.292 656.401 214.688 655.222 214.199C653.178 213.35 650.402 212.393 648.204 212.797C642.122 213.915 633.866 209.733 634.186 201.666C634.144 201.079 634.291 200.367 633.856 199.925C633.139 199.773 632.404 199.719 631.737 199.395C632.665 198.774 633.505 198.005 634.015 196.912C634.657 195.565 636.056 194.934 637.376 195.113C639.608 195.13 640.86 197.792 642.93 198.248C644.089 196.351 644.476 193.797 646.376 192.565V192.565Z" fill="#0F080A"/>
<path d="M409.342 223.782C409.952 223.667 410.568 223.587 411.184 223.535C411.606 223.5 415.911 223.356 415.902 223.263C416.023 224.545 415.43 225.944 415.099 227.17C414.707 228.624 414.244 230.059 413.62 231.409C411.525 235.936 407.574 239.322 403.137 240.394C404.138 240.152 404.924 240.71 405.806 241.105C406.747 241.526 407.343 241.938 408.008 242.839C409.582 244.973 410.965 247.284 412.132 249.727C412.414 250.319 412.684 250.919 412.941 251.525C413.24 252.23 413.496 252.695 412.63 252.645C408.111 252.386 403.422 251.484 399.504 248.81C398.259 247.961 397.082 246.906 396.226 245.569C395.79 244.889 395.49 244.165 395.247 243.376C394.995 242.558 394.639 241.8 394.494 240.93C395.128 241.002 395.646 240.364 395.933 239.724C396.447 238.577 397.05 237.626 397.727 236.588C398.408 235.541 398.581 233.89 399.03 232.684C399.559 231.263 400.217 229.891 401.095 228.702C402.508 226.79 404.446 225.416 406.53 224.587C407.444 224.224 408.387 223.962 409.342 223.782V223.782Z" fill="#8BC43F"/>
<path d="M434.129 229.208C436.196 229.1 438.198 230.423 438.933 232.637C440.389 232.724 441.007 230.575 442.498 230.801C443.969 230.599 445.106 231.807 445.958 232.994C445.556 233.538 444.905 233.997 444.914 234.779C444.803 235.88 444.908 237.067 444.401 238.066C443.314 240.128 441.577 241.781 439.512 242.439C437.79 243.243 435.902 242.824 434.111 243.151C433.442 243.263 432.776 243.361 432.112 243.452C431.305 244.289 430.651 245.328 429.712 245.986C428.992 246.043 428.313 245.021 428.941 244.39C430.393 242.632 432.103 241.15 433.457 239.288C433.838 238.805 433.988 238.032 433.631 237.486C433.085 236.986 432.349 236.882 431.719 236.585C430.216 236.038 429.205 234.58 428.253 233.258C430.276 232.758 432.373 232.772 434.378 232.104C434.336 231.135 434.234 230.167 434.129 229.208V229.208Z" fill="#0F080A"/>
<path d="M696.759 282.673C697.499 282.532 698.247 282.449 698.998 282.427C699.504 282.413 700.027 282.428 700.493 282.653C701.926 283.344 700.968 285.781 700.694 287.033C700.255 289.043 699.617 291.008 698.679 292.794C697.301 295.418 695.229 297.654 692.684 298.699C691.685 299.108 690.51 299.435 690.02 300.496C690.325 299.837 692.265 300.688 692.736 300.873C693.901 301.333 694.923 302.151 695.789 303.131C696.842 304.323 697.675 305.735 698.5 307.137C698.797 307.641 699.101 308.166 699.184 308.764C699.34 309.895 698.394 310.86 697.53 311.192C696.859 311.451 696.134 311.463 695.424 311.427C692.587 311.282 689.792 310.359 687.312 308.808C686.05 308.019 684.868 307.067 683.803 305.97C682.752 304.887 682.058 303.726 680.874 302.825C680.646 301.562 681.741 300.985 682.354 300.159C683.704 298.664 684.469 296.619 684.865 294.564C685.461 292.734 686.167 290.95 686.981 289.229C687.7 287.71 688.927 286.616 690.18 285.656C692.149 284.149 694.41 283.12 696.759 282.673Z" fill="#8BC43F"/>
<path d="M664.26 334.163C664.397 334.024 664.536 333.887 664.677 333.752C667.175 331.37 670.377 330.366 673.613 330.219C676.541 330.086 679.45 330.657 682.283 331.444C683.112 331.674 685.389 331.888 685.9 332.707C686.544 333.739 684.458 335.121 683.842 335.58C682.072 336.9 680.803 338.812 679.093 340.214C677.3 341.684 675.212 342.702 673.028 343.149C670.723 343.621 668.319 343.456 666.079 342.69C664.097 342.014 662.671 339.962 660.497 339.919C660.219 339.346 660.613 338.667 660.986 338.167C662.023 336.777 663.066 335.381 664.26 334.163V334.163Z" fill="#8BC43F"/>
<path d="M600.733 390.348C600.82 390.172 600.997 389.821 601.083 389.646C600.997 389.821 600.82 390.172 600.733 390.348Z" fill="#8BC43F"/>
<path d="M595.272 397.704C596.064 397.1 596.43 396.044 597.12 395.318C596.808 395.905 596.505 396.496 596.202 397.09C596.322 397.478 596.448 397.873 596.583 398.271C596.415 398.784 596.199 399.28 595.974 399.766C595.91 399.905 597.827 402.344 598.016 402.638C598.619 403.573 599.314 404.58 599.798 405.591C600.828 407.743 601.095 410.788 601.23 413.189C601.297 414.375 601.296 415.564 601.294 416.752C601.292 417.934 601.373 419.158 601.29 420.336C601.185 421.816 600.602 421.375 599.722 420.686C598.074 419.397 596.518 417.961 595.076 416.39C594.103 415.331 593.137 414.143 592.626 412.709C592.104 411.242 592.251 409.602 591.677 408.137C591.796 408.441 591.011 410.1 590.879 410.444C590.539 411.329 590.124 412.037 589.549 412.746C588.439 414.115 587.229 415.349 585.805 416.311C584.065 417.487 582.116 418.273 580.107 418.609C579.051 418.785 577.977 418.838 576.911 418.755C575.772 418.667 575.303 418.497 575.387 417.071C575.787 410.257 580.188 404.214 586.069 402.525C588.238 402.356 590.456 401.79 592.292 400.409C593.414 399.698 594.219 398.524 595.272 397.704V397.704Z" fill="#8BC43F"/>
<path d="M682.565 428.344C682.94 428.222 683.324 428.101 683.715 427.983C684.438 429.282 685.14 430.618 686.061 431.765C687.027 432.248 688.204 431.975 689.134 432.643C694.205 436.285 697.633 442.866 697.424 449.712C697.389 450.859 697.152 452.327 696.351 453.14C695.499 454.004 694.174 453.593 693.182 453.179C690.472 452.051 688.073 450.05 686.258 447.53C684.569 445.184 682.751 441.689 682.967 438.551C682.886 436.463 683.663 434.522 683.948 432.494C683.891 431.873 683.537 431.344 683.258 430.837C682.739 430.129 682.538 429.241 682.565 428.344V428.344Z" fill="#8BC43F"/>
<path d="M401.24 432.933C401.684 432.49 402.186 432.149 402.768 432.021C404.521 431.635 406.358 433.945 407.909 434.681C410.035 434.966 411.849 435.12 413.846 436.18C415.744 437.188 417.462 438.634 418.838 440.419C420.364 442.4 421.462 444.789 422.047 447.324C422.274 448.308 422.939 450 422.589 451.01C422.163 452.24 420.123 451.785 419.207 451.655C416.734 451.306 414.32 450.446 412.111 449.147C411.009 448.498 409.842 447.754 408.906 446.822C408.011 445.931 407.464 444.588 406.703 443.532C406.217 442.826 406.181 441.898 405.782 441.156C405.78 441.152 405.278 443.202 405.258 443.361C405.127 444.4 404.917 445.435 404.483 446.372C403.823 447.795 402.711 448.874 401.625 449.916C400.649 450.852 399.673 451.789 398.697 452.725C398.263 453.141 397.559 453.998 396.921 453.84C396.056 453.626 396.273 452.357 396.27 451.61C396.257 448.247 396.254 444.836 396.907 441.536C397.356 439.27 398.3 437.206 399.502 435.332C400 434.556 400.551 433.621 401.24 432.933V432.933Z" fill="#8BC43F"/>
<path d="M619.698 437.252C620.113 437.289 620.56 437.266 620.98 437.407C622.009 438.727 622.816 440.269 624.002 441.433C624.827 442.142 625.922 442.148 626.837 442.668C630.655 444.799 633.303 448.962 634.487 453.495C635.266 456.475 635.397 459.649 635 462.716C634.95 463.1 634.888 463.497 634.697 463.821C633.887 465.195 631.564 463.8 630.667 463.228C629.328 462.376 627.804 461.581 626.607 460.523C625.156 459.24 623.919 457.652 622.992 455.857C621.89 453.724 621.23 451.306 621.061 448.847C620.981 447.675 621.012 446.537 621.264 445.397C621.508 444.293 622.077 443.2 621.715 442.041C621.598 440.593 620.404 439.871 619.704 438.805C619.632 438.285 619.674 437.762 619.698 437.252V437.252Z" fill="#8BC43F"/>
</svg>
