<svg width="379" height="385" viewBox="0 0 379 385" fill="none" xmlns="http://www.w3.org/2000/svg">
<path d="M178.052 0.817596C177.082 1.37241 175.681 2.63334 174.926 3.59164C174.117 4.54995 172.554 5.91177 171.422 6.61789C166.841 9.44237 164.846 12.8217 160.48 25.0275C158.378 30.8277 158.594 31.7861 162.744 34.1062C165.871 35.8715 166.787 36.8298 166.302 38.0403C166.086 38.5951 165.547 38.7464 164.415 38.4942C163.229 38.242 162.259 38.5446 160.265 39.7047C158.863 40.5621 157.246 41.2682 156.707 41.2682C156.222 41.2682 154.929 41.9744 153.851 42.8822C152.503 43.9919 151.048 44.5971 149.161 44.8493C147.383 45.1015 145.442 45.9085 143.663 47.0685C142.154 48.0773 139.782 49.6408 138.381 50.5991C136.98 51.507 134.554 52.6671 132.991 53.121C130.026 54.0289 125.822 56.5003 120.809 60.2831C119.246 61.4431 116.821 63.0067 115.419 63.7128C113.048 64.9737 109.275 68.9583 106.741 72.8419C105.448 74.8594 101.998 77.583 98.5483 79.3483C95.9071 80.7101 80.2758 94.9334 77.4191 98.6154C76.7723 99.4728 74.7779 101.944 73.0531 104.113C71.2744 106.332 69.2261 108.905 68.4715 109.863C67.7169 110.821 65.7226 113.091 64.0517 114.907C62.3807 116.722 58.0686 122.27 54.5112 127.314C50.8998 132.307 47.6119 136.746 47.1268 137.099C46.6416 137.502 45.1863 139.722 43.8927 142.092C42.5991 144.513 41.0359 147.086 40.443 147.943C38.5565 150.465 38.9877 151.978 42.9225 157.526C44.8629 160.3 47.0729 163.225 47.7736 163.982C48.7977 165.192 48.9594 165.798 48.6899 167.513C48.4204 169.177 39.0955 188.141 36.5622 192.076C34.6217 195.203 27.6146 208.266 26.0515 211.746C23.9493 216.538 23.7876 216.84 17.9663 228.138C11.606 240.546 8.64147 246.901 6.75494 251.894C4.545 257.694 4.545 257.644 2.38896 257.644C-1.59971 257.644 -0.629495 259.359 5.56912 263.293C8.26416 265.008 11.067 266.823 11.8216 267.328C12.5762 267.832 14.6245 269.295 16.3493 270.505C18.128 271.766 19.9068 272.775 20.338 272.775C21.5777 272.775 24.2188 274.439 24.5423 275.398C24.704 275.902 28.2614 278.424 32.4657 280.996C43.1381 287.553 43.9466 288.007 48.2048 289.873C50.3069 290.781 53.4332 292.193 55.2119 292.95C56.9906 293.757 61.6261 295.32 65.4531 296.43C69.3339 297.54 74.185 298.952 76.2333 299.507C78.3354 300.112 80.8687 300.919 81.8929 301.272C82.917 301.676 84.9113 301.978 86.3128 301.978C87.7681 302.029 91.1099 302.785 94.2362 303.844C98.0093 305.105 100.165 305.559 101.243 305.307C102.106 305.156 104.531 305.458 107.011 306.064C109.328 306.618 111.592 307.072 112.131 307.072C112.616 307.072 113.587 307.476 114.233 307.98L115.419 308.888L114.072 310.351L112.724 311.864L110.784 310.956C109.706 310.502 108.197 310.099 107.442 310.099C106.741 310.099 105.232 309.746 104.154 309.342C101.836 308.434 100.758 308.384 100.758 309.191C100.758 310.048 103.399 316.05 104.801 318.421C105.448 319.53 106.418 321.901 106.903 323.717C108.143 328.105 110.46 334.762 111.377 336.477C111.754 337.234 112.67 339.857 113.371 342.278C114.072 344.699 115.15 347.775 115.743 349.187C116.336 350.549 117.306 353.626 117.953 355.996C118.977 359.931 119.731 362.503 122.858 372.389C124.636 378.138 125.068 380.66 124.421 381.77C123.235 383.939 122.157 382.627 120.324 376.928C119.354 373.851 117.845 369.362 116.928 366.941C116.066 364.52 115.311 362.15 115.311 361.696C115.311 361.292 114.557 358.871 113.641 356.299C112.724 353.777 111.646 350.549 111.269 349.187C110.892 347.775 109.921 345.052 109.113 343.135C106.849 337.486 103.669 327.449 102.16 321.245C101.405 318.068 100.381 315.041 99.9497 314.436C99.5185 313.831 98.3866 312.318 97.4702 311.006C96.3383 309.392 95.3681 308.535 94.2901 308.333C93.3738 308.132 92.188 307.425 91.595 306.719C90.4631 305.408 88.9 305.408 88.9 306.77C88.9 307.224 89.8702 308.939 91.056 310.653C92.2419 312.368 93.3199 314.588 93.4816 315.596C93.6972 316.605 94.1823 318.219 94.6674 319.177C96.6617 323.364 99.3029 329.668 99.9497 331.787C100.327 333.048 101.459 336.074 102.537 338.596C103.615 341.067 104.639 343.791 104.855 344.648C105.07 345.455 105.663 346.968 106.202 347.927C106.687 348.935 107.496 350.953 107.981 352.466C108.951 355.896 114.934 372.237 116.066 374.759C117.09 377.079 117.144 377.231 116.174 378.441C115.527 379.248 115.311 379.298 114.557 378.744C114.072 378.391 113.694 377.684 113.694 377.231C113.694 376.777 113.102 375.364 112.347 374.053C111.592 372.742 110.676 370.472 110.245 368.959C109.814 367.496 109.005 365.479 108.358 364.52C107.765 363.612 107.226 362.301 107.226 361.696C107.226 361.091 106.849 359.981 106.418 359.174C105.394 357.358 102.914 351.205 102.914 350.499C102.914 350.247 101.944 347.674 100.704 344.799C99.4646 341.924 97.8476 337.89 96.9851 335.822C96.1766 333.754 94.883 331.03 94.0745 329.769C93.3199 328.508 92.6731 327.146 92.6731 326.692C92.6731 324.776 90.8943 320.539 89.439 318.976C88.1993 317.664 87.822 316.807 87.822 315.193C87.822 314.033 87.4986 312.469 87.0674 311.713C86.6901 310.956 86.2049 309.544 85.9893 308.535C85.7737 307.476 85.3425 306.467 84.9652 306.215C83.8333 305.358 79.1439 304.147 73.9694 303.29C70.7893 302.785 67.5552 301.877 65.0758 300.768C62.9197 299.809 60.7637 299.002 60.2786 299.002C59.3623 299.002 54.2956 296.682 52.1934 295.27C49.8218 293.757 48.636 295.774 50.5225 298.044C51.0615 298.7 52.7864 301.474 54.4034 304.248C55.9665 306.971 57.9069 309.897 58.7155 310.805C59.524 311.662 60.7098 313.276 61.3027 314.436C61.8956 315.546 62.8119 316.756 63.2431 317.109C64.5368 318.118 64.2673 319.631 62.8119 320.287C62.0573 320.59 61.3566 321.144 61.1949 321.497C61.0332 321.85 61.5183 324.019 62.1651 326.339C62.8658 328.659 63.6204 331.434 63.8361 332.543C64.0517 333.602 64.6446 335.317 65.1297 336.326C65.8304 337.536 66.2077 339.806 66.4233 343.639C66.8006 350.65 67.7169 359.779 68.5254 364.319C68.8488 366.235 69.1722 369.413 69.2262 371.38C69.2801 373.296 69.6035 376.625 69.9269 378.693C70.2503 380.761 70.5737 382.88 70.5737 383.333C70.5737 384.09 71.0588 384.241 72.9992 384.241H75.4248V382.173C75.4248 381.064 75.1553 379.198 74.8318 377.987C74.4006 376.272 74.4006 375.465 75.1013 373.952C75.8021 372.389 75.8021 371.834 75.2092 370.22C74.2928 367.799 73.646 356.501 74.3467 355.492C74.7779 354.836 75.1014 354.937 76.3411 356.148C77.7425 357.459 77.8503 357.762 77.7964 361.948C77.7964 364.369 77.5808 367.597 77.3652 369.11C77.0418 371.229 77.1496 372.489 77.7964 374.305C78.2815 375.667 78.6588 378.34 78.6588 380.459V384.241H93.6972C106.364 384.241 108.789 384.14 109.382 383.485C109.76 383.081 110.353 382.728 110.73 382.728C111.107 382.728 111.538 383.081 111.754 383.485C111.97 384.09 113.533 384.241 120.755 384.241H129.434L129.11 382.829C128.948 382.073 128.517 380.206 128.194 378.693C127.87 377.18 126.631 372.389 125.445 368.101C124.259 363.814 122.965 358.871 122.588 357.157C122.157 355.442 121.564 353.575 121.294 353.021C120.971 352.466 120.702 351.306 120.702 350.398C120.702 348.734 120.055 346.262 117.737 339.352C117.036 337.284 116.174 334.107 115.85 332.291C115.527 330.475 114.826 327.651 114.233 325.986C112.401 320.388 111.646 314.941 112.563 314.436C113.694 313.781 115.365 316.05 116.443 319.682C119.893 331.434 121.241 335.872 122.265 338.596C124.259 343.992 127.17 352.869 128.194 356.854C128.787 359.023 130.404 364.873 131.805 369.867C133.207 374.86 134.554 380.156 134.878 381.568L135.417 384.241H137.788C140.375 384.241 140.322 384.342 139.513 382.375C139.19 381.619 138.597 379.248 138.219 377.18C136.872 370.27 135.956 366.79 135.093 365.226C134.608 364.369 133.961 362.15 133.638 360.233C133.314 358.317 132.452 355.391 131.751 353.727C131.051 352.062 130.188 348.885 129.865 346.666C129.487 344.446 128.895 342.177 128.463 341.622C128.032 341.117 127.709 340.109 127.709 339.453C127.709 337.385 129.002 338.545 130.188 341.672C130.781 343.286 131.967 345.909 132.829 347.422C133.638 348.935 134.662 351.457 134.985 352.97C135.686 355.744 140.699 369.514 141.453 370.674C141.723 370.976 142.747 374.154 143.825 377.634L145.766 383.989L148.461 384.09L151.156 384.241L154.605 378.542C156.492 375.465 159.726 369.816 161.828 366.084C163.876 362.352 166.248 358.367 167.056 357.257C167.811 356.148 169.644 353.172 171.099 350.701C172.5 348.179 174.71 344.799 175.95 343.135C177.19 341.471 178.807 339.1 179.454 337.839C180.154 336.578 181.825 333.955 183.227 332.039C184.628 330.072 186.353 327.499 187 326.239C187.7 324.978 188.94 322.96 189.856 321.699C191.689 319.228 194.438 314.688 198.427 307.577C199.936 304.954 201.822 301.978 202.631 301.02C203.44 300.062 204.464 298.548 204.949 297.741C205.38 296.884 206.889 294.665 208.237 292.799C209.584 290.932 210.932 288.411 211.309 287.251C211.632 286.09 213.789 282.056 216.106 278.323C222.574 267.832 222.898 267.227 225.269 262.94C226.509 260.721 228.503 257.644 229.797 256.131C231.037 254.618 232.654 252.348 233.301 251.087C234.81 248.363 235.942 247.052 236.966 247.052C238.475 247.052 237.505 249.675 233.247 256.786C231.738 259.359 228.719 264.655 226.563 268.538C224.407 272.472 221.874 276.76 221.011 278.121C220.095 279.433 219.34 280.744 219.34 280.996C219.34 281.198 218.586 282.459 217.615 283.77C215.19 287.049 204.949 306.215 203.979 309.241C203.547 310.603 202.362 312.57 201.337 313.68C199.289 315.748 197.942 318.017 196.432 321.951C195.839 323.313 194.654 325.381 193.683 326.491C192.12 328.357 180.747 348.935 178.645 353.727C178.16 354.836 176.974 356.854 176.004 358.266C173.147 362.251 172.015 364.066 170.237 367.597C169.374 369.413 167.919 371.884 167.11 373.145C166.248 374.406 164.469 377.432 163.122 379.853L160.642 384.292L162.798 384.14C164.9 383.989 165.008 383.888 166.679 380.459C169.751 374.255 173.578 368.101 174.926 367.244C176.112 366.538 176.435 366.538 178.645 367.345C180.262 367.9 181.178 368.555 181.394 369.312C181.61 370.22 179.13 376.777 175.842 383.636C175.627 384.14 176.058 384.292 177.567 384.14C179.454 383.989 179.615 383.838 181.125 380.459C182.041 378.491 183.173 376.02 183.766 374.91C184.305 373.801 186.461 369.161 188.617 364.621C190.719 360.082 193.522 354.382 194.761 352.012C196.055 349.641 197.295 347.12 197.51 346.413C197.726 345.707 200.313 340.613 203.17 335.065C206.081 329.517 209.045 323.616 209.8 321.951C213.196 314.285 216.861 306.568 218.801 303.088C222.952 295.623 232.438 276.507 234.001 272.523C234.864 270.304 235.942 267.984 236.373 267.378C236.75 266.773 237.721 264.856 238.421 263.091C240.631 257.593 246.075 247.355 247.315 246.346C248.123 245.64 248.662 245.539 249.04 245.892C249.417 246.245 249.04 247.91 247.746 251.39C244.782 259.258 242.194 265.764 240.901 268.488C235.457 279.988 225.97 302.886 225.701 305.105C225.539 306.568 224.892 308.132 223.976 309.191C222.52 311.006 221.011 314.688 219.556 319.883C219.071 321.548 218.262 323.767 217.669 324.826C217.076 325.936 216.376 328.105 216.052 329.668C215.729 331.232 214.651 334.107 213.681 336.074C211.525 340.21 208.56 346.666 208.56 347.17C208.56 347.372 207.105 350.65 205.38 354.433C203.655 358.216 201.337 363.31 200.313 365.832C199.289 368.303 197.78 371.733 196.971 373.397C196.163 375.062 194.708 378.189 193.683 380.307L191.905 384.241H196.109L197.241 380.812C197.834 378.945 198.912 376.424 199.559 375.163L200.852 372.893L206.188 372.842C209.099 372.842 211.956 372.893 212.495 372.994C213.735 373.296 213.681 375.364 212.333 380.206C211.74 382.274 211.255 384.04 211.255 384.09C211.255 384.191 212.064 384.241 213.088 384.241C215.136 384.241 214.813 384.947 216.915 375.667C218.747 367.647 219.61 364.419 221.496 358.771C223.491 352.869 224.515 349.591 227.911 338.091C228.827 335.015 230.12 331.08 230.713 329.265C231.36 327.449 232.438 324.07 233.085 321.699C233.786 319.329 234.972 315.495 235.78 313.125C236.535 310.754 237.882 306.467 238.745 303.542C239.607 300.616 241.062 296.329 241.925 293.959C242.841 291.588 243.596 289.167 243.596 288.562C243.596 287.957 244.296 285.687 245.159 283.518C247.153 278.575 250.926 267.025 252.004 262.738C252.435 260.973 254.16 255.526 255.939 250.633C259.604 240.243 261.76 233.484 262.245 230.66C262.407 229.55 263.27 227.281 264.132 225.616L265.695 222.59L265.372 225.868C265.21 227.684 264.563 230.156 263.97 231.417C262.192 235.098 260.359 241.807 259.173 248.817C258.58 252.398 257.394 258.098 256.586 261.427C255.723 264.756 254.376 269.951 253.567 273.027C252.813 276.053 251.088 282.56 249.794 287.402C248.447 292.244 246.884 298.246 246.291 300.768C245.644 303.239 244.081 309.392 242.787 314.386C241.494 319.379 239.715 326.39 238.799 330.021C237.882 333.602 235.996 340.563 234.648 345.405C233.301 350.247 231.899 355.795 231.468 357.762C231.091 359.678 230.067 363.31 229.258 365.832C226.563 374.255 224.191 382.375 224.191 383.333C224.191 384.04 224.623 384.241 225.97 384.241H227.749L228.719 379.45C229.258 376.777 230.067 374.305 230.498 373.902C231.468 372.994 237.505 372.893 239.499 373.7C241.278 374.456 241.548 375.869 240.631 379.45C239.445 383.989 239.499 384.241 241.709 384.241C242.733 384.241 243.596 384.09 243.596 383.838C243.596 380.812 247.045 360.132 248.986 351.457C251.735 339.302 252.759 334.157 252.759 332.291C252.759 331.282 253.19 329.265 253.783 327.752C254.322 326.239 255.292 321.901 255.939 318.169C256.586 314.436 257.61 309.746 258.203 307.829C258.742 305.862 259.227 303.138 259.227 301.726C259.227 300.314 259.604 298.145 260.036 296.985C260.467 295.774 261.06 293 261.329 290.731C261.653 288.461 262.245 285.283 262.677 283.619C263.162 281.955 263.863 277.869 264.348 274.54C265.156 268.337 266.126 263.747 267.959 257.14C268.552 255.072 269.253 251.541 269.468 249.322C269.738 247.103 270.223 244.127 270.546 242.765C270.924 241.353 271.193 239.234 271.139 238.024C271.085 235.552 272.433 230.408 273.187 230.408C273.834 230.408 274.427 234.544 274.104 236.561C273.942 237.469 273.511 242.21 273.187 247.052C272.864 251.894 272.271 257.694 271.84 259.914C271.463 262.133 271.085 265.008 271.085 266.269C271.085 267.58 270.708 270.405 270.277 272.573C269.845 274.793 269.253 278.928 268.983 281.854C268.66 284.779 268.067 289.873 267.636 293.202C267.204 296.531 266.558 301.877 266.234 305.055C265.857 308.232 264.994 314.234 264.294 318.421C263.539 322.557 262.731 328.609 262.407 331.787C262.138 334.964 261.653 339.05 261.383 340.865C261.06 342.681 260.089 349.036 259.227 354.988C258.311 360.939 257.125 368.757 256.532 372.389C255.993 376.02 255.346 380.156 255.184 381.568L254.807 384.241H256.748C258.58 384.241 258.688 384.14 258.688 382.577C258.742 381.719 259.065 378.945 259.443 376.524C260.305 371.279 261.329 369.968 265.156 369.11C268.175 368.454 269.738 368.757 270.6 370.22C271.139 371.128 270.816 376.121 269.792 383.081C269.63 384.09 269.846 384.241 271.624 384.241H273.672L273.942 374.003C274.05 368.404 274.481 359.628 274.804 354.483C275.128 349.339 275.613 341.269 275.936 336.578C276.206 331.837 276.745 323.212 277.014 317.412C277.553 307.476 278.146 297.842 279.17 282.863C279.386 279.382 279.763 275.65 279.925 274.54C280.141 273.431 280.41 260.166 280.518 245.035C280.787 217.798 281.111 210.989 282.135 210.989C282.89 210.989 283.321 216.235 284.021 231.417C284.291 238.478 284.668 244.631 284.83 245.035C285.153 245.741 285.908 283.67 285.8 291.185C285.8 293.101 285.746 298.7 285.8 303.542C285.908 341.723 285.746 378.038 285.423 380.862L284.992 384.241H288.765L288.98 373.498C289.142 367.647 289.412 362.452 289.627 361.998C290.058 361.091 296.041 358.014 297.443 358.014C299.491 358.014 299.707 359.124 299.922 370.976C300.03 377.281 300.138 382.88 300.138 383.333C300.192 383.989 300.623 384.241 301.97 384.241H303.695L303.587 375.566C303.48 370.775 303.21 364.016 302.887 360.536C302.563 357.056 302.078 349.692 301.755 344.144C301.162 333.754 300.892 330.727 299.491 318.169C299.06 314.134 298.521 306.215 298.305 300.516C298.144 294.816 297.766 287.805 297.443 284.88C297.173 281.955 296.688 275.398 296.365 270.253C295.664 258.199 295.017 251.339 294.317 248.817C293.993 247.708 293.724 245.287 293.724 243.471C293.724 241.655 293.346 239.033 292.861 237.671C292.43 236.309 291.837 233.384 291.568 231.164C291.352 228.945 290.705 223.447 290.166 218.908C289.681 214.419 289.412 210.586 289.627 210.334C290.274 209.779 291.514 211.696 291.837 213.713C291.999 214.722 292.484 217.092 292.915 219.059C293.292 220.976 294.047 224.86 294.532 227.634C295.017 230.408 295.772 234.039 296.149 235.704C296.85 238.579 297.928 245.388 299.168 255.122C299.707 259.409 301.27 269.648 302.617 277.819C302.995 280.189 303.641 284.83 303.965 288.158C304.342 291.487 304.827 295.018 305.097 295.976C305.312 296.934 305.905 300.213 306.336 303.29C306.768 306.316 307.63 312.116 308.277 316.151C308.87 320.186 309.624 325.179 309.894 327.247C310.163 329.315 310.756 332.594 311.188 334.561C311.673 336.477 312.05 339.302 312.05 340.815C312.05 343.387 312.858 348.633 314.475 356.501C314.907 358.569 315.5 362.301 315.823 364.773C316.146 367.244 316.739 370.875 317.117 372.842C317.548 374.81 318.033 378.189 318.249 380.307C318.626 384.241 318.68 384.241 320.189 384.241C322.022 384.241 321.968 384.847 320.674 375.919C320.081 372.036 319.165 365.428 318.518 361.292C317.925 357.106 317.224 352.516 316.901 351.054C316.2 347.473 316.793 346.363 320.62 343.942C324.285 341.571 325.849 341.37 326.603 342.984C327.088 344.194 328.328 349.541 329.298 354.988C329.622 356.803 330.754 361.444 331.724 365.327C332.748 369.211 333.826 374.305 334.149 376.676C335.012 382.829 335.551 384.241 337.168 384.241C338.731 384.241 338.731 384.493 337.329 378.643C336.683 376.02 335.982 372.641 335.766 371.128C335.551 369.615 334.473 364.369 333.449 359.527C332.371 354.685 331.239 349.137 330.915 347.271C330.592 345.354 329.622 341.723 328.759 339.201C327.897 336.629 326.981 332.846 326.657 330.727C326.334 328.609 325.363 324.372 324.501 321.296C323.585 318.269 322.615 314.234 322.291 312.318C321.698 308.434 319.434 298.7 318.195 294.463C317.063 290.68 315.338 283.821 314.475 279.836C314.098 278.021 313.182 273.481 312.373 269.648C311.619 265.865 310.756 262.183 310.433 261.427C309.517 259.157 308.277 252.953 308.277 250.633C308.277 249.372 307.953 248.01 307.522 247.607C307.091 247.153 306.336 245.337 305.851 243.521C305.366 241.756 304.612 239.688 304.18 238.881C303.749 238.125 303.426 236.511 303.426 235.25C303.426 233.989 302.995 231.87 302.402 230.559C301.27 227.785 300.246 217.899 301.27 219.463C302.186 220.774 305.043 228.895 305.043 230.055C305.043 230.61 306.121 233.787 307.414 237.166C308.762 240.546 309.948 244.228 310.163 245.337C310.379 246.396 310.864 248.313 311.241 249.574C314.206 258.35 318.518 273.834 318.518 275.448C318.518 275.953 319.219 278.374 320.081 280.744C320.944 283.165 321.86 285.939 322.022 286.897C322.561 289.419 325.202 298.044 328.22 307.072C330.754 314.789 333.556 324.12 335.066 330.021C336.09 333.955 338.03 340.008 340.887 348.179C342.127 351.76 343.366 355.795 343.528 357.106C343.959 359.729 345.469 361.898 346.439 361.343C346.816 361.141 347.086 360.586 347.086 360.082C347.086 358.417 343.42 345.758 341.156 339.554C338.785 332.896 338.408 329.567 339.917 327.197C342.127 323.717 344.337 325.129 345.738 330.929C346.924 335.922 351.613 350.247 353.823 355.492C354.793 357.863 355.764 360.586 355.979 361.545C356.41 363.512 357.65 365.58 358.351 365.58C359.968 365.58 358.782 359.678 355.925 353.626C355.171 352.012 354.039 348.885 353.5 346.666C352.907 344.446 351.829 341.269 351.128 339.554C350.427 337.89 349.457 334.712 348.972 332.493C347.786 326.995 342.342 309.594 340.51 305.307C339.917 303.895 338.839 300.818 338.138 298.347C337.437 295.926 336.629 293.555 336.359 293.051C335.659 291.79 332.532 283.014 332.532 282.257C332.532 281.904 331.724 279.433 330.7 276.81C329.676 274.187 327.843 268.841 326.603 264.957C325.417 261.074 324.016 256.887 323.531 255.626C323.046 254.365 322.183 251.995 321.59 250.331C320.998 248.666 319.65 245.236 318.518 242.714C317.386 240.243 316.093 236.965 315.607 235.452C315.122 233.989 314.152 231.366 313.397 229.601C311.888 226.121 311.673 223.851 312.751 223.851C314.044 223.851 316.308 226.625 317.386 229.399C317.925 230.912 319.488 234.342 320.782 236.965C322.129 239.587 323.531 242.664 323.908 243.774C324.285 244.883 324.771 245.993 324.986 246.296C325.687 247.103 330.161 258.854 332.586 266.218C333.826 269.951 335.227 274.137 335.766 275.549C336.305 276.911 337.168 279.635 337.653 281.602C338.192 283.518 339.647 288.058 340.887 291.689C342.181 295.27 344.121 301.171 345.199 304.803C346.223 308.384 347.355 311.914 347.678 312.62C348.703 314.789 356.195 342.126 357.381 347.927C357.758 349.742 358.513 352.214 359.052 353.475C359.645 354.736 360.83 358.115 361.693 361.04C365.196 373.095 365.681 374.204 366.975 373.448C367.945 372.842 367.676 371.027 365.681 365.68C364.603 362.856 363.579 359.023 363.31 357.157C363.04 355.29 362.447 352.869 361.962 351.861C360.938 349.641 360.776 346.413 361.693 347.271C362.34 347.876 364.442 353.071 367.406 361.545C368.43 364.47 369.993 368.757 370.91 371.128C371.772 373.498 373.12 377.382 373.874 379.803L375.276 384.241H377.108C378.725 384.241 378.941 384.09 378.618 383.333C378.348 382.88 377.647 380.559 377.001 378.189C376.354 375.818 375.33 372.893 374.737 371.632C374.144 370.371 373.497 368.656 373.281 367.849C373.066 366.992 372.096 364.167 371.125 361.545C368.484 354.534 364.981 344.396 364.549 342.378C364.388 341.42 363.525 339.352 362.663 337.789C361.854 336.225 360.776 333.401 360.291 331.484C359.806 329.567 359.052 327.449 358.566 326.743C357.704 325.532 356.842 323.111 354.093 314.134C353.446 312.066 352.368 308.989 351.667 307.325C351.02 305.66 350.158 303.037 349.835 301.524C349.457 300.011 348.703 297.388 348.164 295.724C347.625 294.06 346.169 288.965 344.93 284.376C343.744 279.786 342.235 274.742 341.695 273.128C340.348 269.547 340.348 269.497 341.695 268.236C342.935 267.076 347.139 266.823 348.11 267.883C348.487 268.337 348.757 272.422 348.81 279.382C348.972 290.075 348.972 290.176 350.158 290.327C351.074 290.479 351.613 290.025 352.476 288.461C354.308 285.082 355.71 285.889 355.71 290.226C355.71 291.84 355.979 292.546 356.572 292.799C358.135 293.353 359.159 292.244 361.423 287.503C364.388 281.299 364.549 281.097 366.706 282.308C368.808 283.518 369.832 283.064 371.341 280.29C373.767 275.902 373.389 272.775 369.401 264.806C368.053 262.133 366.813 259.258 366.652 258.4C366.544 257.593 366.706 254.164 367.029 250.835C368.269 237.772 369.185 224.305 369.239 218.555C369.239 215.226 369.454 211.595 369.724 210.485C370.263 208.115 370.371 197.22 369.94 191.067C369.778 188.696 369.562 184.712 369.508 182.24C369.401 179.718 369.185 176.692 368.969 175.431C368.107 170.388 366.975 165.495 366.22 163.679C365.789 162.671 365.412 160.704 365.412 159.342C365.412 158.03 365.035 155.811 364.603 154.449C364.172 153.088 363.795 151.221 363.795 150.314C363.795 149.406 363.579 148.246 363.256 147.741C362.986 147.237 362.232 144.513 361.639 141.638C360.992 138.814 360.022 135.535 359.537 134.375C358.998 133.266 358.297 131.147 357.92 129.786C357.542 128.373 356.572 125.498 355.656 123.38C354.793 121.211 354.093 118.639 354.093 117.681C354.093 116.672 353.661 114.806 353.069 113.494C350.697 107.845 349.835 105.475 349.457 103.558C348.972 100.935 346.385 98.3632 345.145 99.3215C344.175 100.078 344.391 101.188 346.547 107.341C347.355 109.712 348.271 112.738 348.595 114.15C349.242 116.975 352.476 127.213 353.769 130.29C355.818 135.435 357.92 142.546 359.483 149.708C360.399 153.995 361.747 159.695 362.501 162.318C364.118 168.067 365.25 176.137 366.059 188.192C366.867 199.288 365.897 231.921 364.549 239.436C364.118 242.008 363.687 247.456 363.633 251.541L363.525 258.905L365.843 264.15C368.215 269.547 369.023 272.674 368.43 274.036C368.161 274.793 367.999 274.793 366.921 274.086C364.28 272.372 363.256 273.128 362.232 277.718C361.908 279.181 361.262 281.097 360.776 281.955C359.968 283.417 359.806 283.468 359.213 282.711C358.836 282.207 358.351 280.643 358.189 279.231C357.488 274.49 355.979 273.481 354.039 276.558C353.392 277.516 352.691 278.323 352.476 278.323C351.775 278.323 351.398 276.306 351.398 272.523C351.344 267.479 350.643 264.856 349.026 263.242C348.271 262.486 347.625 261.528 347.625 261.124C347.625 260.721 348.918 258.804 350.535 256.837C354.147 252.398 354.955 249.927 355.764 241.05C356.464 233.333 356.141 212.704 355.225 207.963C354.955 206.299 354.416 203.02 354.093 200.65C353.392 195.606 351.452 187.032 349.242 179.063C348.325 175.936 347.625 173.01 347.625 172.607C347.625 171.699 343.313 159.14 341.372 154.399C340.671 152.684 340.078 151.07 340.078 150.767C340.078 150.465 339.593 149.254 339.054 148.044C337.383 144.665 335.281 139.772 333.017 134.123C331.886 131.248 330.107 127.465 329.029 125.7C326.118 120.707 326.01 121.06 333.88 109.863C335.066 108.198 336.629 105.677 337.383 104.365C338.138 103.003 339.593 100.935 340.671 99.725C341.749 98.5145 343.097 96.5979 343.744 95.4378C344.337 94.3282 345.253 93.1177 345.684 92.7646C347.247 91.5542 346.331 85.7034 344.337 83.6859C342.827 82.2233 341.318 82.3746 337.922 84.3921C336.305 85.3504 334.473 86.1574 333.826 86.1574C333.179 86.1574 331.939 86.7122 331.077 87.3679C330.268 87.9731 326.765 89.8897 323.369 91.5037C319.973 93.1682 313.074 96.7492 308.061 99.4224C296.041 105.929 293.885 106.938 292.592 106.584C291.082 106.131 291.298 104.365 292.969 103.81C293.724 103.508 298.413 101.087 303.318 98.4136C314.26 92.5125 325.31 87.267 329.298 86.1574C331.993 85.4008 332.263 85.1991 332.425 83.7364C332.586 82.5259 332.263 81.9206 331.077 81.0128C327.627 78.4405 317.979 68.9583 314.529 64.772C309.786 58.9717 308.816 57.4586 308.816 55.7942C308.816 53.928 310.271 53.3227 314.422 53.4741C318.841 53.6254 319.758 52.9193 321.321 48.1277C322.022 45.9085 323.154 43.7901 324.285 42.5796C327.412 39.0995 327.573 36.8802 324.986 30.9286C324.393 29.6677 324.447 28.8103 325.148 26.2884C325.579 24.5735 325.849 22.6569 325.687 22.0012C324.663 17.8654 324.178 16.8062 322.399 14.94C318.788 11.2076 311.403 8.88754 303.749 9.03885C299.653 9.13972 299.545 9.08931 297.604 7.32401C295.125 5.05433 293.4 4.44907 289.573 4.44907C287.202 4.44907 285.962 4.09601 283.59 2.83508C278.739 0.262785 274.373 0.968924 269.522 5.15521C268.175 6.36571 266.072 7.72749 264.887 8.18143C260.143 10.0476 255.616 15.8479 255.077 20.7907C254.699 24.2205 255.616 26.0866 259.712 30.3234C263.431 34.1566 263.485 34.4088 262.407 41.5709C261.545 47.3711 262.299 49.7417 266.072 52.7175C270.061 55.895 273.834 60.6866 274.75 63.7128C276.529 69.5635 280.68 70.7236 286.986 67.2434C289.789 65.7303 290.813 65.6799 291.568 66.9408C293.185 69.8662 291.298 78.0874 287.417 84.5434C285.261 88.1748 285.261 88.2253 287.741 94.7317C289.465 99.3719 289.789 100.986 288.765 100.683C288.118 100.482 284.776 95.5387 282.62 91.6046C281.111 88.8305 279.817 88.2757 277.392 89.4862C273.565 91.4533 265.264 95.4378 262.731 96.5474C261.275 97.2535 259.443 98.0605 258.688 98.4136C255.885 99.725 256.748 101.339 265.21 110.065C270.169 115.209 270.654 116.722 267.366 116.168C265.264 115.865 265.21 115.865 262.515 119.042C258.796 123.38 250.118 134.274 247.908 137.351C242.949 144.362 241.224 144.715 235.618 139.974C233.57 138.259 229.743 135.182 227.102 133.165C222.305 129.533 222.305 129.483 219.772 129.836C217.4 130.088 217.184 130.038 217.184 129.13C217.184 128.525 217.454 127.465 217.723 126.709C218.64 124.49 217.562 122.977 213.25 120.303C209.962 118.336 208.884 117.933 206.781 117.933C204.302 117.933 204.248 117.882 200.691 113.948C196.055 108.703 193.306 107.593 189.479 109.308C186.946 110.468 178.268 119.597 175.627 123.784C174.818 125.044 173.309 126.608 172.285 127.314C169.913 128.777 169.428 130.038 170.506 132.005C171.476 133.669 172.339 141.184 171.53 140.377C170.776 139.671 168.134 133.821 168.134 132.913C168.134 131.652 166.679 130.946 164.9 131.299C163.661 131.551 163.176 131.45 162.96 130.794C162.744 130.34 163.337 125.498 164.307 120.051C166.787 105.273 167.703 97.5057 168.081 87.1661C168.404 78.8944 168.566 77.583 169.644 75.7169C171.099 73.1446 171.153 70.8749 169.859 69.1096C169.32 68.353 167.595 65.3772 166.086 62.4519C163.068 56.8029 162.044 53.5749 163.283 53.9784C164.038 54.1802 167.056 58.3664 169.428 62.5527C170.183 63.8641 171.099 65.0746 171.422 65.2764C172.446 65.8312 173.525 63.965 173.525 61.5945C173.525 60.384 173.74 59.4256 174.064 59.4256C174.333 59.4256 175.411 60.9892 176.435 62.8554C179.076 67.7982 180.747 69.5131 182.903 69.5131C185.221 69.5131 186.784 68.353 188.293 65.5285C189.317 63.6624 190.126 62.9562 191.959 62.1997C193.252 61.6953 195.247 60.4344 196.432 59.3752C200.313 55.9959 202.523 54.8863 205.38 54.8863C207.536 54.8863 208.129 54.6845 209.045 53.5245C210.77 51.507 210.932 50.0443 209.908 45.858C209.423 43.7397 208.506 40.2091 208.021 37.9898C207.482 35.7706 206.296 31.6852 205.38 28.9111C204.464 26.1371 203.547 22.6569 203.386 21.1942L203.008 18.5715H205.38C206.727 18.5715 208.345 18.2184 208.991 17.7645C210.662 16.7053 213.411 12.0651 213.411 10.3502C213.411 9.08929 212.98 8.73624 208.722 6.9205C199.235 2.83509 191.042 0.565416 183.873 0.111481C180.37 -0.140705 179.454 0.010601 178.052 0.817596ZM294.101 13.1243C295.664 14.7383 296.419 16.2514 296.419 17.7645C296.419 19.9837 294.263 19.4794 291.352 16.554C288.711 13.8808 288.549 13.5278 289.519 12.6199C290.543 11.6616 292.915 11.9138 294.101 13.1243ZM284.83 15.8479C285.854 16.2514 287.417 18.9246 286.824 19.2776C286.177 19.6307 282.943 17.6636 282.943 16.9071C282.943 16.3018 283.429 15.5453 283.806 15.5453C283.86 15.5453 284.345 15.6966 284.83 15.8479ZM198.804 17.7645C199.613 18.6724 202.308 30.9286 201.93 31.9373C201.499 32.8957 198.049 34.3583 195.354 34.7114C192.659 35.014 192.066 36.6785 194.222 37.9898C195.893 39.049 197.888 38.6959 200.098 36.9306C201.984 35.4175 202.415 35.4175 203.386 36.8298C204.248 38.0403 206.404 46.4633 206.404 48.5312C206.404 50.3469 205.272 50.9522 203.493 50.0948C200.744 48.733 199.451 49.2373 198.588 51.86C197.942 53.8775 196.163 55.3907 194.384 55.3907C192.875 55.3907 191.474 54.3819 188.994 51.4061C187.754 49.9434 186.784 50.2461 186.569 52.1627C186.461 53.3227 186.838 54.1297 188.347 55.5924C189.371 56.6012 190.234 57.7612 190.234 58.1647C190.234 58.5178 189.371 59.4257 188.347 60.1318C187.323 60.8883 185.976 62.4014 185.329 63.511C184.412 65.2259 184.035 65.5285 182.795 65.3772C181.556 65.2259 181.017 64.6207 179.292 61.3423C178.16 59.1735 176.705 55.3402 176.004 52.7679C174.656 47.7242 173.578 45.4041 171.584 43.1344C170.883 42.3274 170.29 41.1674 170.29 40.4612C170.29 39.4021 170.56 39.2508 172.177 39.2508C173.309 39.2508 174.495 38.8473 175.088 38.2924C176.058 37.3846 177.298 34.3583 177.298 32.8452C177.298 31.6852 175.573 30.6764 173.471 30.6764C171.584 30.6764 171.368 30.5251 171.368 29.4155C171.368 28.7094 171.854 27.7006 172.5 27.0954C173.794 25.8849 175.249 26.1371 177.351 27.9528C178.106 28.6085 179.13 29.1633 179.669 29.1633C180.208 29.1633 182.472 27.5493 184.736 25.5823C188.994 21.9004 196.271 17.0584 197.51 17.0584C197.888 17.0584 198.481 17.361 198.804 17.7645ZM311.08 21.4969C311.565 22.4047 312.319 23.5648 312.805 24.0692C313.29 24.5735 313.667 25.5318 313.667 26.2379C313.667 26.8936 314.26 28.0033 315.015 28.6589C316.632 30.0712 316.739 30.9791 315.338 31.6347C313.883 32.3913 311.834 30.7269 310.056 27.4989C309.301 26.0362 308.223 24.2709 307.684 23.5143C306.498 22.0012 306.39 21.0429 307.307 20.1855C308.439 19.1263 310.11 19.7316 311.08 21.4969ZM285.261 24.7248C287.309 28.1041 287.902 30.2729 287.256 31.9878C286.555 33.6522 288.01 39.049 289.304 39.5029C289.789 39.6542 290.975 38.8977 292.376 37.435C294.263 35.5689 294.963 35.1653 296.203 35.3167C297.443 35.4175 297.928 35.821 298.413 37.2333C299.329 39.7551 299.275 43.9414 298.251 46.312C297.065 49.086 297.497 49.7417 300.569 49.9435C303.48 50.0948 303.156 49.6913 307.414 58.5682C310.217 64.3685 313.936 69.0592 321.267 76.0195C326.657 81.1137 327.735 82.425 327.304 83.0807C326.981 83.5346 323.154 85.6025 318.734 87.6705C309.247 92.2098 302.078 95.9422 298.09 98.4641C295.071 100.381 293.67 100.683 292.807 99.6241C292.538 99.3215 291.406 96.7996 290.22 94.076L288.172 89.1836L290.921 83.7364C294.478 76.7256 295.502 73.2959 295.233 69.2104C295.017 65.579 293.616 63.3093 291.514 63.0571C290.759 62.9563 288.549 63.7128 286.555 64.7216C282.512 66.6886 280.572 66.8904 279.063 65.6294C277.553 64.3685 277.877 63.511 281.057 60.3839C284.021 57.4586 284.722 55.7437 283.213 55.1889C282.782 55.0376 281.758 55.1385 281.003 55.3907C279.224 56.0463 275.074 56.0463 273.726 55.3907C272.487 54.735 272.433 53.7262 273.565 52.1627C274.643 50.5487 273.78 50.0948 271.247 50.9018C269.414 51.4566 269.199 51.4061 268.013 50.1452C266.611 48.5816 266.342 45.1519 267.42 42.277C267.851 41.0665 267.851 40.0073 267.42 38.2924C267.097 37.0315 266.773 34.2575 266.665 32.1895C266.45 27.3476 266.935 27.2467 272.433 30.8782C277.931 34.6105 283.536 36.2245 285.046 34.5096C285.585 33.9548 285.585 33.5009 285.099 32.6939C284.722 32.0887 284.614 30.8277 284.776 29.9703C285.046 28.7598 284.776 27.7006 283.752 25.9353C282.189 23.2117 282.081 22.6065 283.159 22.6065C283.59 22.6065 284.507 23.5648 285.261 24.7248ZM315.446 33.8035C317.171 35.0645 319.057 37.9394 319.057 39.4021V40.9152L316.362 40.6125C314.853 40.4612 313.397 40.1586 313.128 40.0073C312.373 39.5534 312.481 34.5096 313.236 33.8035C314.044 33.047 314.314 33.047 315.446 33.8035ZM169.212 44.5467C169.751 45.1519 169.698 45.3536 168.943 45.6058C168.081 45.9085 167.11 45.1519 167.056 44.1432C167.056 43.4875 168.512 43.7397 169.212 44.5467ZM156.168 47.926C156.438 48.279 157.732 50.8513 158.971 53.6254C160.211 56.3994 162.044 60.2831 163.068 62.3006C165.547 67.193 165.439 71.5306 162.798 71.5306C161.289 71.5306 160.858 70.774 158.756 63.9146C157.678 60.4344 156.222 56.0464 155.468 54.1802C154.713 52.3644 154.12 50.1956 154.12 49.3886C154.12 47.3712 155.036 46.7155 156.168 47.926ZM168.35 49.6408C168.835 50.0443 169.212 51.1035 169.212 51.9105C169.212 53.928 167.757 54.4324 166.41 52.9193C165.278 51.5574 165.116 49.54 166.14 49.1869C167.218 48.733 167.488 48.7834 168.35 49.6408ZM165.978 74.3551C165.978 74.7586 165.709 74.9603 165.439 74.809C165.116 74.6072 165.008 74.2542 165.17 74.002C165.655 73.2959 165.978 73.4472 165.978 74.3551ZM341.695 87.6705C343.366 89.234 343.097 91.7055 340.887 94.5299C339.863 95.8917 338.623 97.6571 338.138 98.5145C337.599 99.3215 334.581 103.71 331.346 108.249C328.112 112.738 324.016 119.194 322.237 122.623C320.459 126.003 318.572 129.18 318.087 129.685C317.278 130.542 317.224 130.542 316.524 129.332C315.661 127.768 314.098 127.264 312.535 128.02C311.834 128.424 310.325 128.525 308.546 128.272C306.768 128.071 305.258 128.172 304.288 128.575C302.725 129.281 300.731 131.904 300.731 133.367C300.677 135.737 292.484 153.642 291.029 154.5C289.843 155.206 290.166 153.491 292.322 147.64C294.856 140.882 296.58 137.351 299.437 133.367C301.647 130.239 302.402 126.558 301.054 125.498C300.246 124.944 299.868 124.944 298.305 125.65L296.419 126.507V124.036C296.419 121.665 295.502 119.95 294.209 119.95C293.939 119.95 293.292 119.093 292.807 118.034C292.161 116.823 291.406 116.117 290.597 116.016C289.573 115.865 289.196 116.319 288.064 118.589C286.609 121.766 286.016 122.27 285.099 121.211C284.237 120.253 282.728 120.253 281.865 121.211C280.194 123.128 277.392 121.312 273.457 115.814C272.002 113.797 269.037 110.115 266.935 107.593C262.784 102.802 262.192 101.137 263.97 99.6745C264.455 99.2206 267.097 97.8084 269.738 96.5474C272.433 95.2361 275.505 93.723 276.637 93.1682C278.47 92.2098 278.739 92.1594 279.871 92.8655C280.518 93.269 283.105 97.304 285.585 101.793C290.867 111.376 291.406 111.83 294.856 109.409C296.149 108.552 297.389 107.845 297.658 107.845C297.928 107.845 300.839 106.332 304.127 104.517C307.414 102.65 310.918 100.835 311.942 100.431C313.02 100.028 314.637 99.1702 315.5 98.5649C317.171 97.4049 322.884 94.53 326.603 92.9664C327.627 92.5125 330.915 90.9489 333.88 89.4358C336.844 87.9731 339.593 86.7122 339.971 86.7122C340.294 86.6618 341.103 87.1157 341.695 87.6705ZM194.6 112.385C195.893 113.393 195.893 113.393 194.869 114.15C193.683 115.007 188.617 115.209 188.617 114.402C188.617 113.494 191.204 111.376 192.282 111.376C192.875 111.376 193.899 111.83 194.6 112.385ZM194.761 117.227C195.893 117.63 195.839 119.093 194.654 120.102C192.983 121.514 185.922 123.178 185.922 122.119C185.922 121.312 188.725 118.488 190.342 117.781C192.228 116.874 193.414 116.722 194.761 117.227ZM268.444 119.95C270.492 121.009 271.247 123.38 270.924 127.768C269.953 139.369 269.468 143.202 268.767 144.765C268.013 146.43 263.27 151.322 251.95 162.015C243.326 170.186 242.302 170.488 238.745 166.201C235.565 162.368 232.33 157.728 228.288 151.373C226.347 148.246 223.006 143.454 220.957 140.68C218.855 137.856 217.13 135.182 217.076 134.728C216.915 132.862 217.238 132.106 218.262 131.803C219.61 131.4 220.796 132.106 226.186 136.292C234.433 142.697 241.224 147.186 242.626 147.186C243.919 147.186 252.435 137.25 261.167 125.498C265.749 119.295 266.288 118.891 268.444 119.95ZM209.8 121.766C212.333 122.573 213.627 124.237 212.333 124.994C211.201 125.65 205.057 126.104 202.415 125.751C200.313 125.448 199.936 125.196 199.936 124.237C199.936 121.312 204.733 120.152 209.8 121.766ZM183.981 125.65C185.383 126.558 187.161 127.012 191.312 127.415C194.276 127.768 197.888 128.02 199.343 128.02C202.146 128.02 205.326 128.827 205.326 129.584C205.326 130.038 204.194 130.593 200.313 132.005C198.373 132.711 198.588 133.972 200.744 135.081C202.685 136.09 203.224 138.259 201.715 139.016C201.176 139.268 199.289 139.621 197.51 139.823C195.732 139.974 190.449 140.478 185.76 140.983C177.405 141.79 177.244 141.79 176.22 140.831C174.98 139.671 173.201 132.358 173.686 130.542C174.01 129.382 180.478 124.49 181.664 124.49C181.879 124.49 182.957 125.044 183.981 125.65ZM326.28 126.81C327.573 128.02 327.897 128.726 330.646 136.595C332.047 140.63 333.88 145.169 334.742 146.732C335.551 148.246 337.06 151.776 338.084 154.55C339.108 157.274 340.941 161.914 342.127 164.839C346.115 174.624 350.481 191.975 351.937 203.676C352.26 206.299 352.745 210.031 353.015 211.998C354.093 219.917 353.284 242.765 351.613 250.23C351.452 250.986 350.158 253.256 348.757 255.273C347.355 257.291 345.307 260.216 344.175 261.83C342.612 264.15 341.911 264.756 340.995 264.604C339.647 264.453 338.893 262.536 336.844 254.618C336.144 251.995 335.389 249.473 335.173 249.019C334.958 248.565 334.365 246.548 333.934 244.581C332.91 239.991 329.406 232.778 325.956 228.138C324.501 226.171 322.076 222.842 320.566 220.673C319.057 218.555 317.656 216.79 317.386 216.79C317.171 216.79 316.416 215.932 315.769 214.873C314.044 212.351 307.953 205.088 301.539 198.027L298.305 194.497L294.532 194.799C292.484 194.95 289.25 195.404 287.417 195.707C285.531 196.01 283.86 196.161 283.698 195.959C283.482 195.808 283.968 194.95 284.776 194.093C287.094 191.47 285.207 190.714 280.841 192.58C279.548 193.135 277.823 193.589 277.014 193.589C276.206 193.589 274.481 193.942 273.241 194.345C270.169 195.354 269.091 195.303 268.39 194.093C267.959 193.336 268.067 192.883 268.929 192.076C269.792 191.269 270.708 191.067 273.403 191.067C276.691 191.016 282.081 190.462 285.477 189.806C287.04 189.453 287.309 189.604 287.741 190.764C288.495 192.529 290.328 192.832 293.185 191.622C295.934 190.462 298.305 190.31 299.922 191.218C302.186 192.479 318.141 208.72 322.291 214.016C323.315 215.327 324.824 217.244 325.687 218.252C329.137 222.489 335.766 232.123 336.305 233.737C336.952 235.552 338.354 236.006 339.432 234.796C340.294 233.888 343.852 225.112 344.66 222.086C345.792 217.698 346.385 218.252 328.059 206.45C323.207 203.323 322.561 202.718 322.399 201.255C322.076 198.078 324.393 198.38 330.915 202.415C333.988 204.281 335.928 205.189 336.844 205.088C338.192 204.937 338.192 204.887 338.623 198.632C338.839 195.152 338.947 190.108 338.893 187.435C338.731 183.199 338.569 182.392 337.545 181.383C335.82 179.668 335.982 178.306 338.3 174.876C340.132 172.052 340.186 171.8 339.378 171.043C338.569 170.287 338.3 170.287 335.928 171.295C334.527 171.85 331.185 172.96 328.49 173.666C325.849 174.422 322.291 175.431 320.674 175.986C319.057 176.49 316.146 177.297 314.26 177.701C312.319 178.155 309.84 178.962 308.654 179.517C307.522 180.071 305.797 180.475 304.881 180.374C303.318 180.223 303.048 179.92 301.108 175.784C299.168 171.699 299.06 171.245 299.707 169.48C300.515 167.109 310.595 148.044 312.104 146.127C312.697 145.32 313.883 143.252 314.745 141.537C315.554 139.772 316.739 137.805 317.332 137.099C318.302 135.939 319.866 133.367 322.507 128.575C323.962 125.902 324.878 125.448 326.28 126.81ZM284.345 129.332C283.698 130.895 282.997 129.483 283.644 127.869C284.237 126.406 284.291 126.356 284.453 127.415C284.56 128.071 284.507 128.928 284.345 129.332ZM295.341 132.207C294.694 133.77 293.724 135.535 293.185 136.191L292.16 137.351L292.107 135.788C292.107 133.77 293.346 130.391 294.909 128.373L296.149 126.759L296.311 128.071C296.419 128.777 295.987 130.643 295.341 132.207ZM213.627 135.233C215.082 137.25 218.478 141.941 221.227 145.673C223.976 149.406 226.725 153.491 227.425 154.752C229.581 158.686 237.613 169.732 239.338 171.094C241.332 172.657 241.548 172.657 244.674 171.346C247.584 170.135 251.95 166.302 260.736 157.274C264.402 153.541 267.797 150.465 268.282 150.465C269.684 150.465 269.684 152.533 268.175 161.46C267.42 165.949 266.665 170.741 266.504 172.153C266.342 173.515 265.911 176.188 265.587 178.004C264.941 181.685 265.587 184.661 267.204 185.468C267.689 185.67 270.007 186.174 272.325 186.578C274.589 186.931 276.314 187.385 276.044 187.637C275.829 187.839 273.295 188.141 270.385 188.343C264.402 188.747 264.024 188.948 263.054 193.185C262.353 196.11 263.108 198.531 264.887 198.935C266.126 199.238 270.438 198.33 273.565 197.119C275.613 196.312 278.2 196.817 277.769 197.876C277.338 198.885 271.031 201.709 264.617 203.727C258.257 205.694 257.071 206.501 254.053 210.636C248.824 217.899 242.087 226.928 241.332 227.785C240.847 228.239 239.877 229.803 239.122 231.215C238.421 232.627 236.966 234.947 235.996 236.359C234.972 237.822 232.977 240.798 231.468 243.017C230.013 245.236 227.911 248.162 226.779 249.524C225.701 250.835 224.353 252.852 223.706 253.962C223.113 255.122 221.335 257.745 219.772 259.813C218.208 261.931 215.567 265.714 213.95 268.236C212.333 270.758 209.908 274.086 208.668 275.7C205.919 279.08 204.518 281.45 203.979 283.821C203.763 284.729 202.847 286.343 201.876 287.351C199.074 290.327 197.241 292.849 196.379 294.867C195.354 297.035 190.126 305.105 188.132 307.425C187.377 308.283 185.814 310.452 184.682 312.217C179.13 320.842 176.759 324.221 174.441 326.894C173.039 328.508 171.315 330.879 170.56 332.19C169.859 333.501 167.919 336.376 166.248 338.596C160.642 346.161 155.36 353.727 154.282 355.744C151.91 360.132 147.005 366.639 146.197 366.487C144.795 366.235 141.723 360.233 141.723 357.812C141.723 356.652 141.238 354.786 140.591 353.727C139.998 352.617 139.136 350.801 138.758 349.692C138.381 348.582 137.411 346.161 136.656 344.345C135.902 342.479 134.662 338.747 133.907 336.023C133.153 333.3 132.29 330.828 132.021 330.526C131.32 329.719 127.87 320.085 127.439 317.664C127.224 316.504 126.253 314.588 125.175 313.327C122.534 310.048 123.019 309.392 127.601 309.846C130.673 310.099 131.374 310.048 132.021 309.342C132.56 308.737 132.614 308.232 132.182 307.173C131.59 305.862 130.673 303.138 126.846 291.941C125.876 289.016 124.906 284.93 124.744 282.863C124.421 279.382 124.475 278.828 125.984 275.801C127.709 272.22 131.751 268.538 135.255 267.227C137.842 266.319 143.879 260.721 147.544 255.879C150.185 252.348 150.617 251.491 150.778 248.918C150.994 246.497 151.263 245.842 152.557 244.833C154.605 243.168 165.062 240.142 171.907 239.234C179.13 238.226 191.581 238.679 192.713 239.94C193.091 240.394 194.276 241.756 195.3 242.916C197.079 244.934 197.241 245.438 197.241 248.313C197.241 252.146 197.942 253.004 200.529 252.146C201.499 251.844 202.847 251.591 203.547 251.591C205.703 251.591 208.075 250.129 208.884 248.212C209.8 246.195 211.363 243.975 213.357 241.907C215.352 239.789 214.597 238.78 211.309 239.234C208.398 239.587 207.213 239.184 204.41 236.914C201.93 234.947 199.99 234.695 196.81 235.956C194.169 237.015 193.899 237.015 189.317 236.309C186.73 235.905 182.903 235.704 180.801 235.805C174.387 236.158 173.848 234.241 179.777 232.022C181.502 231.366 186.137 229.449 189.964 227.785C193.845 226.121 199.505 223.75 202.631 222.54C205.757 221.279 209.476 219.816 210.878 219.211C213.411 218.101 213.573 218.101 216.106 218.959C219.556 220.119 220.85 220.068 223.976 218.555C227.857 216.689 229.258 216.891 230.929 219.312C231.684 220.421 232.492 221.329 232.708 221.329C233.786 221.329 234.433 219.917 234.433 217.698C234.433 216.336 234.81 214.419 235.241 213.41C236.211 211.242 236.319 207.156 235.403 206.299C235.025 205.946 234.325 205.694 233.84 205.694C233.301 205.694 232.438 205.139 231.845 204.433C230.39 202.718 228.989 202.869 227.479 204.937C226.779 205.946 225.377 207.408 224.353 208.215C222.844 209.476 222.089 209.729 219.718 209.729C216.214 209.729 214.867 210.536 213.142 213.713C212.064 215.68 211.363 216.336 209.153 217.244C207.698 217.798 206.242 218.303 205.919 218.303C205.596 218.303 202.092 219.665 198.157 221.329C194.169 222.994 190.611 224.355 190.18 224.355C189.749 224.355 188.509 224.91 187.377 225.616C186.299 226.322 183.388 227.735 180.963 228.693C178.537 229.651 174.495 231.517 171.961 232.829C161.666 238.175 154.659 241.201 154.012 240.596C153.527 240.142 153.581 239.688 154.12 238.68C154.875 237.368 170.29 223.347 173.255 221.279C174.171 220.623 176.489 218.757 178.429 217.092C183.227 213.007 187.862 209.577 189.317 209.073C189.964 208.821 191.527 208.77 192.767 208.972C194.438 209.174 195.678 209.022 197.51 208.215C199.289 207.459 200.637 207.207 202.038 207.408C203.116 207.61 204.302 207.509 204.679 207.308C205.11 207.055 205.649 205.139 205.973 203.071C206.566 199.288 206.512 199.238 205.057 197.422C203.493 195.455 202.092 195.152 201.014 196.363C199.451 198.128 197.079 199.238 193.953 199.641C192.174 199.893 190.342 200.347 189.91 200.65C189.533 201.003 188.725 202.516 188.239 204.029C187.431 206.4 186.676 207.358 183.173 210.334C180.909 212.25 178.106 214.419 176.974 215.125C175.842 215.882 173.471 217.698 171.746 219.261C170.021 220.825 168.404 222.187 168.081 222.237C167.272 222.54 165.978 221.329 165.978 220.27C165.978 219.513 166.302 219.412 167.811 219.665C169.428 219.917 169.751 219.715 170.614 218.505C171.153 217.698 173.201 215.327 175.142 213.259C177.082 211.191 179.4 208.568 180.262 207.459C181.125 206.349 183.658 203.575 185.922 201.356C193.63 193.538 194.815 192.328 199.074 187.284C204.14 181.433 204.356 181.232 207.32 180.425C210.554 179.618 213.573 177.348 214.759 174.977C215.567 173.262 216.16 172.809 218.316 172.153C221.227 171.245 221.55 170.589 222.251 164.94C222.79 160.956 220.688 158.182 217.831 159.039C217.238 159.19 216.214 158.888 215.298 158.232C214.004 157.223 213.627 157.173 212.118 157.677C211.147 158.03 209.962 158.283 209.53 158.283C207.698 158.283 206.943 159.745 206.943 163.125C206.943 165.949 206.727 166.554 205.596 167.613C203.601 169.53 202.739 169.227 201.283 166.1C199.828 163.125 199.613 163.024 195.893 163.831C193.414 164.335 191.851 165.899 191.851 167.815C191.797 169.732 190.126 172.859 187.7 175.431C185.922 177.297 185.491 178.155 185.275 180.273C185.059 182.341 184.412 183.753 181.933 187.234C180.262 189.655 178.16 193.034 177.244 194.749C176.327 196.464 175.034 198.531 174.333 199.389C173.686 200.196 172.716 201.709 172.177 202.667C169.266 208.014 162.259 217.798 161.289 217.798C160.534 217.798 161.774 214.571 163.715 211.645C164.846 209.88 166.248 207.308 166.733 205.845C167.218 204.382 168.134 202.667 168.673 202.012C169.805 200.7 173.471 193.185 175.573 187.788C176.705 185.065 177.729 183.602 180.37 181.03C182.256 179.214 183.766 177.6 183.766 177.398C183.766 177.247 183.388 176.238 182.957 175.28C181.664 172.355 181.933 170.64 184.035 168.42C186.299 166.1 186.353 165.495 184.466 164.688C183.604 164.335 182.364 163.679 181.556 163.225C180.586 162.57 179.4 162.368 177.351 162.519C175.842 162.62 174.495 162.772 174.441 162.872C174.333 162.973 173.848 163.679 173.363 164.436C172.824 165.243 172.069 165.848 171.692 165.848C171.315 165.848 170.668 166.151 170.344 166.554C169.805 167.16 170.021 167.714 171.368 169.48C172.985 171.497 173.093 171.85 172.77 174.624C172.5 177.197 172.662 177.953 173.902 180.273L175.303 182.896L171.638 189.907C169.644 193.74 163.499 205.391 157.947 215.781C148.73 233.182 147.814 234.695 146.466 234.846C145.173 234.998 144.957 234.796 144.418 232.829C144.041 231.618 142.963 229.046 141.992 227.129C141.076 225.162 139.836 222.439 139.351 220.976C138.165 217.647 137.411 217.092 134.716 217.496C132.021 217.899 131.859 217.042 134.177 214.621C135.093 213.663 135.794 212.503 135.794 211.998C135.794 210.384 132.506 206.753 130.458 206.148C129.38 205.845 128.302 205.391 128.086 205.189C127.87 204.987 129.11 202.819 130.835 200.347C132.614 197.876 134.231 195.304 134.446 194.597C134.662 193.891 135.524 192.429 136.279 191.319C138.435 188.343 144.418 176.339 144.418 175.078C144.418 173.767 147.922 170.841 150.67 169.883C155.791 168.118 163.822 163.78 169.374 159.897C175.142 155.811 175.896 154.601 174.387 152.129C173.848 151.322 173.309 149.456 173.147 147.993L172.824 145.27L174.926 144.967C176.112 144.765 179.723 144.412 182.957 144.16C201.553 142.697 203.008 142.395 205.596 139.116C206.566 137.856 206.943 136.796 206.943 135.031C206.943 133.165 207.213 132.459 208.075 131.904C209.8 130.744 210.77 131.349 213.627 135.233ZM282.404 134.829C282.404 135.233 282.189 135.586 281.865 135.586C281.596 135.586 281.488 135.233 281.65 134.829C281.865 134.426 282.081 134.073 282.189 134.073C282.297 134.073 282.404 134.426 282.404 134.829ZM166.949 138.108C167.326 139.621 168.512 143.303 169.536 146.279C170.56 149.254 171.368 152.331 171.368 153.088C171.368 154.853 169.913 156.265 168.081 156.265C166.302 156.265 165.763 155.458 165.224 152.331C165.062 151.121 164.146 147.741 163.283 144.816C162.367 141.84 161.666 138.965 161.666 138.36C161.666 136.595 163.229 134.981 164.793 135.182C166.086 135.334 166.356 135.687 166.949 138.108ZM312.697 138.209C312.319 138.562 312.05 138.612 312.05 138.309C312.05 137.603 312.697 136.998 313.074 137.351C313.182 137.502 313.02 137.906 312.697 138.209ZM302.887 143.807C302.887 144.463 302.024 146.329 300.946 147.993C299.868 149.607 298.683 151.827 298.251 152.886C297.874 153.945 297.173 155.408 296.742 156.164C296.311 156.921 295.179 159.241 294.209 161.309C292.43 165.142 291.244 166.857 290.382 166.857C289.681 166.857 290.543 164.335 292.268 161.309C295.179 156.366 295.341 156.013 295.341 155.357C295.341 155.004 296.095 153.441 296.958 151.877C297.874 150.314 298.575 148.75 298.575 148.346C298.575 146.833 301.378 142.647 302.456 142.647C302.671 142.647 302.887 143.151 302.887 143.807ZM296.85 168.925C296.203 171.8 295.125 173.414 293.885 173.414C292.484 173.414 293.131 170.589 295.125 168.168C296.257 166.907 297.227 165.899 297.335 165.999C297.443 166.1 297.227 167.412 296.85 168.925ZM201.014 176.44C202.254 177.6 202.362 178.76 201.391 180.273C200.529 181.685 192.605 190.663 187.215 196.312C184.844 198.834 182.364 201.558 181.717 202.365C179.13 205.542 171.961 212.25 171.153 212.25C169.751 212.25 170.129 210.536 172.231 207.661C173.309 206.147 174.926 203.575 175.788 201.911C176.705 200.246 178.322 197.724 179.454 196.363C180.532 194.95 181.771 193.034 182.149 192.076C182.58 191.117 183.981 188.797 185.329 186.88C187.431 183.905 188.024 183.4 190.072 182.946C191.689 182.543 192.875 181.786 194.115 180.374C198.966 174.977 199.235 174.776 201.014 176.44ZM276.853 176.036C279.278 176.843 279.063 177.449 276.368 177.449C273.78 177.449 272.379 176.843 272.918 175.986C273.403 175.28 274.589 175.28 276.853 176.036ZM293.993 177.197C293.993 177.701 293.346 178.508 292.592 178.911C291.352 179.567 290.975 179.517 288.98 178.659C287.741 178.155 286.717 177.55 286.717 177.398C286.717 177.045 291.514 176.036 292.915 176.137C293.616 176.188 293.993 176.541 293.993 177.197ZM284.453 176.743C286.339 177.247 285.854 177.953 283.644 177.953C281.111 177.953 279.17 177.499 279.17 176.894C279.17 176.39 282.566 176.289 284.453 176.743ZM332.425 177.701C332.64 179.012 329.999 182.291 328.22 182.946C324.986 184.207 315.015 185.62 311.457 185.317C308.546 185.065 307.792 185.166 307.522 185.771C307.037 187.082 307.738 187.889 310.11 188.747C311.349 189.201 313.667 190.512 315.176 191.722C316.685 192.883 318.518 194.244 319.273 194.749C320.189 195.303 320.674 196.11 320.674 196.968C320.674 198.632 318.249 201.659 316.901 201.659C316.362 201.659 312.643 198.683 308.492 194.85L301.054 188.091L298.09 187.94L295.071 187.788L294.909 184.964C294.802 182.745 294.963 181.887 295.934 180.778C297.497 178.911 299.06 179.214 300.407 181.736C301.485 183.602 301.701 183.753 304.127 183.905C306.013 184.006 307.468 183.703 309.517 182.846C311.08 182.139 313.182 181.433 314.206 181.282C316.685 180.828 322.345 179.164 326.334 177.65C330.215 176.238 332.209 176.238 332.425 177.701ZM280.895 181.03C281.38 181.282 283.482 181.484 285.585 181.484C287.687 181.484 289.412 181.685 289.412 181.988C289.412 182.543 286.878 182.946 283.213 182.997C281.758 182.997 278.362 183.047 275.721 183.098C271.732 183.249 270.816 183.098 270.385 182.392C269.953 181.786 270.007 181.332 270.492 180.778C271.085 180.071 271.948 180.021 275.613 180.273C277.985 180.475 280.41 180.828 280.895 181.03ZM327.627 187.738C328.436 188.646 326.28 191.622 324.285 192.277C321.968 193.034 319.919 192.126 319.704 190.26C319.542 188.948 319.812 188.595 321.051 188.141C322.507 187.587 324.232 187.234 326.118 187.082C326.603 187.082 327.304 187.334 327.627 187.738ZM335.012 190.31C335.551 192.277 334.742 196.968 333.664 198.178C332.586 199.439 331.239 199.238 329.083 197.371C327.088 195.657 327.304 194.396 330.161 191.571C332.964 188.747 334.473 188.394 335.012 190.31ZM323.8 207.055C325.202 207.761 327.412 209.174 328.759 210.182C330.107 211.191 333.395 213.562 336.144 215.478C338.839 217.345 341.21 219.211 341.372 219.564C341.749 220.522 339.755 226.928 338.785 227.785C338.354 228.189 337.653 228.39 337.222 228.239C336.791 228.088 334.581 225.263 332.263 221.985C329.999 218.706 327.034 214.873 325.795 213.461C322.992 210.435 319.92 205.694 320.728 205.694C321.051 205.694 322.399 206.299 323.8 207.055ZM126.631 207.56C126.631 208.468 121.618 215.831 120.324 216.891C119.893 217.244 118.653 218.757 117.629 220.32C116.605 221.833 115.15 223.7 114.395 224.456C112.563 226.222 112.994 227.634 116.12 230.357C118.168 232.123 118.707 232.375 119.624 231.921C120.216 231.618 120.971 230.912 121.294 230.256C122.319 228.491 124.529 226.171 125.607 225.768C127.331 225.162 127.87 226.524 127.277 230.004C126.954 231.77 126.415 235.805 126.092 238.982C125.768 242.16 125.283 246.598 125.014 248.817C124.69 251.037 124.475 254.416 124.475 256.383C124.475 259.006 124.205 260.317 123.397 261.528C122.157 263.495 120.324 263.747 119.893 262.032C119.731 261.427 119.246 259.359 118.815 257.442C118.33 255.576 117.36 252.903 116.605 251.591C115.85 250.23 114.988 247.607 114.719 245.791C114.449 243.925 114.126 242.261 114.018 242.059C113.641 241.554 110.46 224.91 110.46 223.649C110.46 222.54 125.121 206.702 126.146 206.702C126.415 206.702 126.631 207.106 126.631 207.56ZM131.374 209.829C131.751 210.182 132.021 210.889 132.021 211.494C132.021 212.704 123.504 224.456 121.187 226.524C119.031 228.39 117.252 228.189 117.036 226.121C116.928 224.86 117.953 223.246 122.858 216.891C128.787 209.375 129.865 208.417 131.374 209.829ZM300.731 217.445C300.731 218.353 300.623 218.404 300.192 217.798C299.491 216.79 299.491 215.63 300.192 216.033C300.515 216.185 300.731 216.84 300.731 217.445ZM160.049 221.733C160.049 222.943 158.54 224.86 157.57 224.86C156.653 224.86 156.6 224.154 157.408 222.691C158.486 220.774 160.049 220.219 160.049 221.733ZM137.195 223.094C137.626 223.75 138.327 225.263 138.758 226.474C139.136 227.684 140.052 230.004 140.807 231.669C143.609 237.973 143.933 239.335 143.124 241.151C142.316 242.916 134.662 252.247 131.59 255.223C129.541 257.24 128.032 257.644 127.493 256.333C127.008 255.122 127.116 252.045 127.763 250.078C128.032 249.12 128.517 246.043 128.787 243.269C130.512 224.961 130.619 224.557 132.991 222.842C134.77 221.48 136.117 221.581 137.195 223.094ZM147.383 249.574C147.814 250.835 147.113 251.995 142.963 256.988C139.351 261.326 135.578 264.705 134.339 264.705C133.207 264.705 132.829 263.142 133.692 261.881C140.537 251.491 146.305 246.346 147.383 249.574ZM123.936 267.984C123.936 268.942 122.858 269.446 122.211 268.841C121.78 268.437 121.833 268.034 122.319 267.53C123.073 266.672 123.936 266.924 123.936 267.984ZM61.3566 303.239C62.5424 304.702 64.1056 307.274 64.8602 308.939C66.5311 312.671 68.202 315.495 69.7652 317.16C71.3283 318.774 77.3652 328.609 78.1737 330.727C78.551 331.635 79.629 333.653 80.5993 335.166C81.5695 336.729 82.917 339.403 83.5099 341.168C84.1567 342.883 85.073 344.85 85.612 345.506C86.151 346.161 86.8518 347.473 87.2291 348.431C87.5525 349.389 88.6844 351.306 89.7085 352.718C90.9482 354.382 91.7028 356.097 91.9724 357.762C92.2958 360.082 92.2419 360.233 91.4333 359.578C90.8943 359.224 89.7085 358.72 88.7383 358.569C87.3908 358.317 86.9596 357.964 86.8518 356.904C86.744 356.148 86.9596 355.089 87.283 354.483C87.9298 353.323 87.0135 350.953 85.7198 350.549C85.1808 350.348 85.073 350.852 85.3964 352.92C85.6659 354.988 85.612 355.492 84.9652 355.492C83.3482 355.492 80.2758 350.549 80.2758 347.977C80.2758 347.069 79.8446 346.212 79.2517 345.808C77.3652 344.547 76.8262 342.782 77.7964 340.714C78.4971 339.1 78.4971 338.545 77.8503 336.427C77.4191 335.115 76.3411 333.401 75.4787 332.594C74.6162 331.837 73.4843 330.173 72.9992 328.962C72.5141 327.752 71.8673 326.743 71.5978 326.743C70.5737 326.743 71.1666 328.861 73.3226 332.594C75.317 336.124 75.4248 336.578 74.6162 337.284C73.8616 337.99 73.646 337.99 72.2985 337.335C71.0588 336.629 70.8432 336.175 70.6815 333.804C70.5737 331.938 70.1425 330.677 69.4957 330.021C67.7169 328.256 67.2857 326.491 67.9864 323.767C68.6871 320.892 68.3637 319.278 66.585 317.311C65.8843 316.555 65.1297 315.344 64.9141 314.638C64.6985 313.932 63.6204 312.469 62.5424 311.36C60.2247 308.939 56.8289 302.432 57.2601 301.323C57.853 299.86 59.2006 300.465 61.3566 303.239ZM77.3113 308.434C78.3354 309.796 79.3056 311.511 79.5212 312.267C79.6829 313.074 80.6532 315.344 81.6234 317.311C82.5936 319.329 84.534 323.313 85.8815 326.188C87.283 329.063 89.8702 334.208 91.6489 337.688C93.3738 341.117 94.8291 344.194 94.8291 344.547C94.8291 344.9 96.0688 347.422 97.5241 350.146C99.0334 352.869 100.219 355.593 100.219 356.148C100.219 356.753 100.974 358.619 101.836 360.284C102.699 361.948 103.453 363.612 103.453 364.016C103.453 364.419 104.585 366.992 105.933 369.715C108.682 375.213 108.736 376.676 106.148 376.676C104.909 376.676 104.423 376.323 103.507 374.507C102.86 373.296 102.375 371.38 102.375 370.27C102.375 368.757 101.998 367.748 100.974 366.639C100.219 365.832 99.0334 363.764 98.2788 362.049C97.5781 360.385 95.6376 356.35 93.9667 353.071C92.2958 349.843 89.7624 344.446 88.3071 341.117C86.7979 337.789 85.0191 334.258 84.3723 333.3C83.6716 332.341 82.917 330.727 82.7014 329.769C82.4858 328.811 81.6234 326.844 80.7609 325.482C79.9524 324.07 78.9822 321.8 78.6049 320.438C78.2815 319.026 77.2035 316.504 76.1794 314.789C73.6999 310.452 72.8914 307.829 73.8077 306.82C74.8318 305.66 75.2631 305.862 77.3113 308.434ZM120.378 310.855C120.001 311.713 118.761 311.864 118.276 311.107C118.114 310.855 118.276 310.754 118.707 310.906C119.138 311.057 119.677 310.956 119.893 310.653C120.378 309.846 120.702 309.998 120.378 310.855ZM74.6162 348.935C74.6162 349.288 74.2928 349.692 73.9694 349.793C73.5382 349.944 73.2687 349.591 73.2687 348.935C73.2687 348.28 73.5382 347.927 73.9694 348.027C74.2928 348.179 74.6162 348.582 74.6162 348.935ZM160.642 358.67C161.127 359.628 160.534 361.141 156.761 368.606C154.336 373.448 151.856 377.836 151.263 378.34C150.185 379.198 150.131 379.198 149.053 378.189C148.137 377.331 147.922 376.524 147.922 373.498V369.867L151.533 364.823C153.527 362.049 155.522 359.275 156.007 358.619C157.193 357.056 159.888 357.106 160.642 358.67ZM96.7695 365.933C98.3327 368.505 98.5483 369.261 98.0632 370.068C97.0929 371.783 95.1525 371.884 92.4036 370.422C89.5468 368.808 89.0617 368.101 88.8461 364.823C88.6305 362.553 88.7383 362.301 89.8163 362.15C90.4631 362.049 91.2716 361.645 91.6489 361.242C92.188 360.586 92.4575 360.637 93.5894 361.645C94.344 362.301 95.7454 364.218 96.7695 365.933ZM83.456 364.268C84.1567 366.992 84.2106 369.615 83.5099 370.623C83.1326 371.229 82.8631 371.178 81.8929 370.371C81.0305 369.615 80.8149 369.009 80.9766 367.849C81.8929 362.805 82.0546 362.049 82.4319 362.049C82.6475 362.049 83.1326 363.058 83.456 364.268ZM84.534 374.356C85.073 375.617 84.6957 379.702 84.0489 379.702C83.8333 379.702 83.4021 378.744 83.0787 377.533C82.1624 374.154 83.4021 371.481 84.534 374.356ZM90.7865 376.928C90.7865 377.987 90.517 378.945 90.1397 379.046C89.3851 379.298 88.5766 376.02 89.1695 375.163C89.8702 374.053 90.7865 375.011 90.7865 376.928ZM84.5879 381.972C84.5879 382.93 84.3723 383.737 84.0489 383.737C83.7794 383.737 83.5099 382.93 83.5099 381.972C83.5099 381.013 83.7794 380.206 84.0489 380.206C84.3723 380.206 84.5879 381.013 84.5879 381.972Z" fill="black"/>
<path d="M277.068 38.1916C276.26 39.5534 276.314 41.0161 277.23 41.7222C278.793 42.9327 280.68 40.8648 280.141 38.3933C279.871 37.082 277.769 36.9307 277.068 38.1916Z" fill="black"/>
<path d="M80.5993 344.648C80.0063 346.111 80.222 346.464 81.5156 346.313C82.2702 346.212 82.7014 345.808 82.7014 345.152C82.7014 343.942 81.0844 343.538 80.5993 344.648Z" fill="black"/>
<path d="M347.625 368.202C347.625 369.766 349.026 374.91 351.236 381.316C352.044 383.787 352.422 384.241 353.5 384.241C354.362 384.241 354.632 384.04 354.47 383.535C354.308 383.132 353.392 379.752 352.476 376.07C350.32 367.647 349.888 366.588 348.649 366.588C347.84 366.588 347.625 366.941 347.625 368.202Z" fill="black"/>
<path d="M362.555 376.524C361.908 377.079 362.124 378.542 363.31 381.467C364.55 384.645 365.951 385.048 366.544 382.476L366.867 380.963L367.622 382.577C368.215 383.989 368.646 384.241 370.101 384.241C371.772 384.241 371.826 384.191 371.341 382.98C369.67 378.845 367.999 377.533 367.137 379.702C366.76 380.61 366.544 380.509 365.196 378.441C363.633 376.171 363.202 375.869 362.555 376.524Z" fill="black"/>
</svg>
